<svg fill="none" height="120" width="152" xmlns="http://www.w3.org/2000/svg" ><path d="M151.18 56.29L59.63 0 29.7 49.15l91.56 56.29 29.92-49.15z" fill="#F2F2F2"></path><path d="M111.84 17.52H39.45v39.82h51.08l.38 8.88 8.52-5.45 5.35-3.43h7.06V17.52z" fill="#3F0F40"></path><path d="M0 119.83h64.53" stroke="#3F3D56" stroke-miterlimit="10" stroke-width="2"></path><path d="M75.65 49.51l-1.9-1.71c-6.7-6.19-11.12-10.2-11.12-15.2a7.1 7.1 0 017.16-7.25 7.67 7.67 0 015.86 2.77 7.7 7.7 0 015.86-2.77 7.1 7.1 0 017.16 7.24c0 5-4.43 9.02-11.13 15.2l-1.9 1.72z" fill="#ED6664"></path><path d="M12.58 63.23a4.56 4.56 0 012-4.45c.13-4.37 3.09-7.87 6.72-7.87 3.72 0 6.73 3.67 6.73 8.2 0 4.52-3.01 8.18-6.73 8.18-.35 0-.7-.03-1.05-.1a4.55 4.55 0 01-4.48 3.75 4.5 4.5 0 01-4.42-3.8 4.56 4.56 0 011.23-3.91z" fill="#2F2E41"></path><path d="M25.44 60.81c-.03.27 0 .54.09.8.16.35.54.68.42 1.05-.07.25-.32.38-.56.46-1.13.39-2.36.16-3.56.21-.4.03-.8.05-1.2.04-.4 0-.78-.14-1.1-.39a9.5 9.5 0 001.74-1.1c.14-.1.25-.21.36-.34.25-.34.29-.79.3-1.2.02-.43.02-.84 0-1.26l2.56-.01c.27 0 1.1-.07 1.2.23.05.15-.13.58-.16.75-.04.25-.07.5-.09.76z" fill="#FBBEBE"></path><path d="M25.44 60.81c-.03.27 0 .54.09.8.16.35.54.68.42 1.05-.07.25-.32.38-.56.46-1.13.39-2.36.16-3.56.21-.4.03-.8.05-1.2.04-.4 0-.78-.14-1.1-.39a9.5 9.5 0 001.74-1.1c.14-.1.25-.21.36-.34.25-.34.29-.79.3-1.2.02-.43.02-.84 0-1.26l2.56-.01c.27 0 1.1-.07 1.2.23.05.15-.13.58-.16.75-.04.25-.07.5-.09.76z" fill="#000" opacity=".05"></path><path d="M29.69 76.36a5.8 5.8 0 01-.33 2.82 53.1 53.1 0 00-5.53-.3c.32-.42.53-.92.6-1.46.04-.5.05-1 0-1.5h3.59c.26-.01.52 0 .78.06.35.08.54.31.89.38z" fill="#FBBEBE"></path><path d="M30.7 78.33c.18.3.4.58.6.87.38.55.72 1.12 1 1.72.36.73.69 1.5 1.12 2.18.25.34.46.7.63 1.09.12.36.19.74.18 1.13.02.51-.03 1.06-.34 1.47a1.33 1.33 0 01-1.15.51.94.94 0 01-.6-.26c-.3-.3-.27-.8-.19-1.23.06-.3.13-.62.03-.9a3.2 3.2 0 01-.46-1.44c-.09-.68-.18-1.4-.61-1.92-.23-.29-.54-.5-.77-.78-.12-.16-.21-.33-.34-.47-.18-.2-.43-.36-.53-.61a2.46 2.46 0 01-.1-.51 3.64 3.64 0 00-.29-.78c-.4-.95-.52-1.99-.62-3.01.44-.02.87-.1 1.29-.26-.12.04 1.02 3 1.15 3.2z" fill="#FBBEBE"></path><path d="M30.7 78.33c.18.3.4.58.6.87.38.55.72 1.12 1 1.72.36.73.69 1.5 1.12 2.18.25.34.46.7.63 1.09.12.36.19.74.18 1.13.02.51-.03 1.06-.34 1.47a1.33 1.33 0 01-1.15.51.94.94 0 01-.6-.26c-.3-.3-.27-.8-.19-1.23.06-.3.13-.62.03-.9a3.2 3.2 0 01-.46-1.44c-.09-.68-.18-1.4-.61-1.92-.23-.29-.54-.5-.77-.78-.12-.16-.21-.33-.34-.47-.18-.2-.43-.36-.53-.61a2.46 2.46 0 01-.1-.51 3.64 3.64 0 00-.29-.78c-.4-.95-.52-1.99-.62-3.01.44-.02.87-.1 1.29-.26-.12.04 1.02 3 1.15 3.2z" fill="#000" opacity=".05"></path><path d="M23.69 60.44a3.02 3.02 0 003.01-3.03 3.02 3.02 0 10-3.01 3.03zM29.7 88.26c.56.68.78 1.58.99 2.44l.75 3.16c.33 1.28.59 2.58.77 3.89.09.74.13 1.52-.12 2.23-.2.52-.5 1-.89 1.42-.8.97-1.8 1.78-2.9 2.38-.6.3-1.22.54-1.82.81-.9.41-1.77.9-2.64 1.4l-3.24 1.84c-.7.4-1.4.8-1.98 1.35a4.94 4.94 0 00-1.22 1.85.93.93 0 01-.28.47c-.19.13-.44.09-.65.02a3.8 3.8 0 01-2.6-3.81 19.67 19.67 0 006.5-3.81c1.45-1.29 2.75-2.81 4.52-3.6.77-.33 1.7-.6 2.06-1.36.14-.36.2-.74.2-1.12.02-1.05.06-2.12-.14-3.15-.17-.88-.5-1.71-.75-2.57-.5-1.7-.67-3.5-.83-5.27a29.1 29.1 0 013.48-.21c.1-.01.2.01.29.08.05.06.08.14.09.22.08.47.1.98.4 1.34z" fill="#FBBEBE"></path><path d="M29.7 88.26c.56.68.78 1.58.99 2.44l.75 3.16c.33 1.28.59 2.58.77 3.89.09.74.13 1.52-.12 2.23-.2.52-.5 1-.89 1.42-.8.97-1.8 1.78-2.9 2.38-.6.3-1.22.54-1.82.81-.9.41-1.77.9-2.64 1.4l-3.24 1.84c-.7.4-1.4.8-1.98 1.35a4.94 4.94 0 00-1.22 1.85.93.93 0 01-.28.47c-.19.13-.44.09-.65.02a3.8 3.8 0 01-2.6-3.81 19.67 19.67 0 006.5-3.81c1.45-1.29 2.75-2.81 4.52-3.6.77-.33 1.7-.6 2.06-1.36.14-.36.2-.74.2-1.12.02-1.05.06-2.12-.14-3.15-.17-.88-.5-1.71-.75-2.57-.5-1.7-.67-3.5-.83-5.27a29.1 29.1 0 013.48-.21c.1-.01.2.01.29.08.05.06.08.14.09.22.08.47.1.98.4 1.34z" fill="#000" opacity=".05"></path><path d="M12.65 109.1l1.75 3.12c.14.24.27.48.38.74.2.43.31.88.53 1.3.25.44.55.85.9 1.23l1.14 1.32c.12.16.27.29.44.4a.52.52 0 00.56-.03.58.58 0 00.14-.2 1.3 1.3 0 00-.3-1.5c-.15-.14-.35-.25-.42-.45a.83.83 0 01-.02-.34c.08-.98.16-1.97.45-2.91.22-.7.55-1.43.4-2.15-.31-.1-.7-.16-.9.1-.35.52-.37.33-.91.25-.54-.08-1.06-.11-1.46-.54-.53-.57-.49-1.45-.41-2.22-.56-.03-1.1.17-1.6.43l-.53.28c-.1.04-.18.1-.25.18-.23.28-.06.69.11 1zM29.47 85.74c.19.62.34 1.24.44 1.88.05.35.08.7.1 1.05-1.18.28-2.42.3-3.64.31l-5.1.06c-.1-.7-.15-1.4-.13-2.1.07-1.14.5-2.26.43-3.4 1.4-.26 2.81-.41 4.23-.47.26-.03.52 0 .77.07.23.09.42.25.64.36.5.24 1.25.12 1.67.5.39.36.45 1.25.6 1.74z" fill="#2F2E41"></path><path d="M29.47 85.74c.19.62.34 1.24.44 1.88.05.35.08.7.1 1.05-1.18.28-2.42.3-3.64.31l-5.1.06c-.1-.7-.15-1.4-.13-2.1.07-1.14.5-2.26.43-3.4 1.4-.26 2.81-.41 4.23-.47.26-.03.52 0 .77.07.23.09.42.25.64.36.5.24 1.25.12 1.67.5.39.36.45 1.25.6 1.74z" fill="#000" opacity=".1"></path><path d="M29.18 87.43c.39 1.82-.02 3.7-.11 5.57-.07 1.33.02 2.66.06 4 .02.38 0 .76-.05 1.14-.07.34-.17.66-.3.98l-.46 1.23c-.43 1.15-.87 2.39-.43 3.59.12.3.14.64.07.97-.66 2.75-.07 5.67.02 8.5 0 .28.04.56.15.82.23.5.8.73 1.1 1.2.38.55.24 1.34-.19 1.85-.43.5-1.1.75-1.77.8-.82.08-1.65-.13-2.47-.26l-.09-.08c-.1-.57.21-1.1.3-1.67.05-.35.07-.7.07-1.04 0-.31.02-.62 0-.93a8.6 8.6 0 00-.14-.94l-.69-3.84-.15-.84-.62-3.45c-.11-.66.17-1.39.25-2.05.15-1.36.3-2.73.26-4.1 0-.38-.05-.76-.13-1.13a4.9 4.9 0 01-.15-1.04c-.01-.42-.18-.84-.35-1.26-.55-1.4-.53-2.94-.65-4.43a3.4 3.4 0 00-.17-.93c-.17-.46-.51-.83-.78-1.23s-.48-.91-.33-1.38c.25-.74 1.25-.97 1.86-1.19a5.19 5.19 0 013.24-.11c.93.3 1.83.72 2.65 1.25z" fill="#FBBEBE"></path><path d="M24.56 119.41c.04.08.1.14.18.19.08.03.17.05.26.04l4.04-.09c.5-.02 1 0 1.5.05.39.06.77.18 1.17.2a5.3 5.3 0 002.62-.78.66.66 0 00.32-.25.55.55 0 000-.4 1.22 1.22 0 00-.53-.7c-.22-.12-.47-.18-.72-.2a4.85 4.85 0 01-2.64-.93c-.2-.18-.38-.4-.57-.6a10.17 10.17 0 00-1.45-1.16.47.47 0 00-.18-.03.45.45 0 00-.2.1c-.18.15-.34.34-.43.56a.5.5 0 00.22.6c.16.07.33.04.47.13-.3.21-.74.32-1.07.53-.32.25-.69.45-1.07.58-.4.1-.87.03-1.13-.29-.13-.17-.31-.43-.5-.32a.36.36 0 00-.13.2c-.2.45-.33.94-.38 1.44-.05.4.03.79.22 1.13zM25.65 76.88c.24 0 .47.03.7.08.21.07.42.17.62.29l2.21 1.23c.16.08.31.19.45.3.32.31.41.79.43 1.23.08 1.73-.7 3.4-.8 5.12a6.6 6.6 0 00.27 2.29c.06.18.11.4-.02.54a.48.48 0 01-.17.1c-.7.28-1.47.34-2.22.4-1.83.14-3.69.28-5.5.03a.64.64 0 01-.27-.07.66.66 0 01-.22-.33l-.68-1.63a6.22 6.22 0 01-.64-2.86c.11-1.23.91-2.26 1.38-3.4.14-.34.25-.7.42-1.02.19-.33.4-.65.63-.95.18-.26.35-.83.57-1.01.27-.22 1.02-.22 1.36-.26.5-.06.99-.08 1.48-.08z" fill="#2F2E41"></path><path d="M12.65 109.1l1.75 3.12c.14.24.27.48.38.74.2.43.31.88.53 1.3.25.44.55.85.9 1.23l1.14 1.32c.12.16.27.29.44.4a.52.52 0 00.56-.03.57.57 0 00.14-.2c.1-.2.13-.4.12-.6-.42-.21-.8-.49-1.1-.83a5.5 5.5 0 01-.65-.97l-.47-.83c-.8-1.43-1.62-2.86-2.43-4.28a4.88 4.88 0 01-.64-1.82l-.53.28c-.1.04-.18.1-.25.18-.23.28-.06.69.11 1z" fill="#000" opacity=".1"></path><path d="M20.07 62.21c1.46.25 2.94.4 4.43.42.37 0 .8-.03.97-.36.08-.16.07-.35.18-.49.2-.25.6-.12.88.02.4.2.83.43 1.06.81.16.3.26.62.3.95.14.71.36 1.46.9 1.94.27.25.62.42.89.68.43.42.6 1.06.6 1.66 0 .61-.14 1.2-.25 1.8-.4 2.21-.28 4.48.33 6.63.03.08.04.16.03.24-.05.16-.23.21-.4.24-2.45.4-5.08.02-7.33 1.07-.2-.47-.66-.73-.89-1.18-.18-.36-.16-.8-.2-1.2-.14-1.1-.84-2.02-1.23-3.05-.35-.9-.47-1.9-.95-2.73-.17-.3-.39-.57-.56-.87-.4-.82-.69-1.7-.85-2.6-.1-1.18.45-2.3 1.09-3.29.25-.38.55-.77 1-.69z" fill="#D0CDE1"></path><path d="M27.17 66.4c.28.05.45.34.58.6.09.16.16.33.22.5.08.3.1.6.1.9 0 .2-.02.39-.07.57a.75.75 0 01-.33.46" opacity=".1" stroke="#000" stroke-miterlimit="10"></path><path d="M19.53 92.18l-.29-.68c-1.02-2.44-1.7-4.03-1.1-5.34a2.06 2.06 0 011.96-1.23 2.23 2.23 0 012 1.63 2.21 2.21 0 012.53.46 2.06 2.06 0 01.35 2.3c-.6 1.3-2.24 1.82-4.75 2.64l-.7.22z" fill="#ED6664"></path><path d="M23.34 56.84c1.8-.46 3.08-1.56 2.85-2.45-.23-.9-1.87-1.24-3.67-.78-1.8.46-3.08 1.56-2.85 2.45.22.9 1.87 1.25 3.67.78z" fill="#2F2E41"></path><path d="M21.4 67.28a5.2 5.2 0 00-.84-2.37c-.18-.3-.45-.56-.76-.74a.93.93 0 00-1 .08c-.18.19-.3.42-.37.67a8.12 8.12 0 00-.53 3.41c0 1.06.02 2.13.28 3.16.15.58.39 1.14.5 1.73.12.59.1 1.23-.21 1.75-.26.4-.45.82-.56 1.28-.11.55-.14 1.1-.1 1.67l.04 1.52c.05 2 .1 4.02-.29 5.97-.18.9-.64 1.74-.53 2.64.05.33.14.65.28.95.17.44.37.91.79 1.12.2.1.42.14.64.15.28.01.55 0 .83-.04.17-.02.38-.14.32-.3a.33.33 0 00-.11-.13 1.85 1.85 0 01-.69-1.43c0-.8.52-1.56.36-2.33-.1-.48-.46-.95-.3-1.42.33-1.05.37-2.19.66-3.26l.28-1.04c.16-.63.33-1.25.47-1.88.38-1.75.53-3.54.45-5.33-.01-.27.14-.6.16-.87.03-.33 0-.66 0-.99.02-1.35.36-2.62.23-3.97z" fill="#FBBEBE"></path><path d="M75.08 102.66c.6 0 1.1-.49 1.1-1.1a1.1 1.1 0 10-1.1 1.1z" fill="#ED6664"></path><path d="M96.74 119.58h45.64M69.49 119.58h21.56" stroke="#3F3D56" stroke-miterlimit="10" stroke-width="2"></path><path d="M80.43 119.79v-12.5" stroke="#114B5F" stroke-miterlimit="10" stroke-width="2"></path><path d="M80.43 109.05c.98 0 1.76-.79 1.76-1.77a1.76 1.76 0 10-3.51 0c0 .98.78 1.77 1.75 1.77zM80.43 114.99s-.25-5.43-5.4-4.8l5.4 4.8zM122.55 103.31c-4.56 7.03-3.3 15.97-3.3 15.97s8.64-2.46 13.2-9.49c4.56-7.03 3.3-15.96 3.3-15.96s-8.64 2.45-13.2 9.48z" fill="#114B5F"></path><path d="M119.22 119.2l-.32-.06-.66-.15c-2.45-.58-8.96-2.54-13.22-7.7-5.33-6.46-5.1-15.48-5.1-15.48s8.15 1.33 13.52 7.13c.23.25.45.5.67.77 4.64 5.62 5.07 13.18 5.1 15.05v.43z" fill="#ED6664"></path><path d="M115.93 103.31c4.56 7.03 3.31 15.97 3.31 15.97s-8.64-2.46-13.2-9.49c-4.56-7.03-3.31-15.96-3.31-15.96s8.64 2.45 13.2 9.48z" stroke="#114B5F" stroke-miterlimit="10" stroke-width="2"></path><path d="M119.22 118.76l-.32.38-.3.33-.36-.48c-1.23-1.73-5.2-7.86-4.89-14.95.02-.37.05-.74.09-1.1.23.25.45.5.67.77 4.64 5.62 5.07 13.18 5.1 15.05z" fill="#000" opacity=".1"></path><path d="M125.98 104.55c-.36 8.39-6.55 14.92-6.55 14.92s-5.61-7.05-5.25-15.43c.36-8.38 6.55-14.92 6.55-14.92s5.61 7.05 5.25 15.43z" fill="#ED6664"></path><path d="M119.43 119.24l1.36-29.78" stroke="#114B5F" stroke-miterlimit="10" stroke-width="2"></path></svg>