<svg fill="none" height="120" width="161" xmlns="http://www.w3.org/2000/svg" class="report-inner-layout-tt-comp_audienceDataImg_3yVyS"><path d="M93.53 18c-10.32-.37-20.15-3.75-29.54-7.44C54.61 6.87 45.31 2.78 35.24.82 28.76-.43 21.35-.6 16.14 2.91 11.1 6.29 9.47 12.14 8.6 17.56c-.65 4.08-1.04 8.37.76 12.2 1.25 2.65 3.47 4.88 5 7.42 5.33 8.84 1.57 19.74-4.22 28.37-2.7 4.04-5.86 7.9-7.95 12.22C.1 82.07-.86 87 .97 91.4c1.81 4.36 6.14 7.63 10.82 9.93 9.52 4.68 20.74 6.02 31.67 6.77 24.21 1.68 48.55.95 72.83.23 8.98-.27 18-.54 26.84-1.95 4.9-.78 9.97-2.02 13.53-5.01 4.53-3.8 5.65-10.24 2.62-15-5.09-8-19.14-9.99-22.7-18.57-1.95-4.72.06-9.98 2.9-14.36 6.1-9.4 16.31-17.64 16.85-28.38.37-7.37-4.54-14.76-12.14-18.25-7.96-3.66-19-3.2-24.87 2.86-6.05 6.24-16.68 8.63-25.8 8.31z" fill="#B099CD" opacity=".1"></path><path d="M94.62 109.08l-27.78-.36.08-.72 1.34-11.9h24.4l1.8 11.9.13.9.03.18z" fill="#D0D2D5"></path><path d="M94.59 108.9H80.73l-13.9-.18.09-.72h27.53l.14.9z" fill="#000" opacity=".1"></path><path d="M99.07 108.18H62.2v.9h36.86v-.9z" fill="#D0D2D5"></path><path d="M134.24 24.59a2.39 2.39 0 00-.67-1.67 2.31 2.31 0 00-1.64-.7H28.99a2.3 2.3 0 00-2.14 1.47c-.11.28-.17.59-.17.9v63.2h107.56V24.6z" fill="#444053"></path><path d="M26.68 87.16v7.4c0 .63.25 1.22.68 1.66a2.3 2.3 0 001.63.69h102.94a2.35 2.35 0 002.3-2.34v-7.4H26.69z" fill="#D0D2D5"></path><path d="M130.32 26.2H31.13v56.82h99.19V26.19z" fill="#B099CD" opacity=".1"></path><path d="M81 94.1a2.38 2.38 0 001.89-.93l.18-.28-1.32-.22 1.43.01a2.46 2.46 0 00.04-1.93l-1.91 1 1.76-1.3a2.43 2.43 0 00-1.54-1.15 2.37 2.37 0 00-2.56 1.07 2.46 2.46 0 00.13 2.8 2.4 2.4 0 001.9.93z" fill="#B099CD"></path><path d="M83.4 96.9l11.08 11.28-1.7-11.28H83.4z" fill="#000" opacity=".1"></path><path d="M98.78 36.45H34.42c-.2 0-.37.16-.37.37v38.8c0 .2.16.37.37.37h64.36c.2 0 .37-.17.37-.38V36.82c0-.2-.17-.37-.37-.37zM130.35 26.2H31.2v3.32h99.15V26.2z" fill="#fff"></path><path d="M34.36 26.78h-2.62a.11.11 0 00-.11.11v1.8c0 .06.05.1.1.1h2.63c.06 0 .11-.04.11-.1v-1.8a.11.11 0 00-.1-.11z" fill="#B099CD"></path><path d="M95.36 26.78H65.61a.08.08 0 00-.08.08v1.85c0 .05.04.09.08.09h29.75c.05 0 .09-.04.09-.09v-1.85a.08.08 0 00-.09-.08z" fill="#B099CD" opacity=".3"></path><path d="M94.56 28h-.07l-.03-.03a.6.6 0 00-.22-.94.58.58 0 00-.65.13.6.6 0 00.42 1.02.6.6 0 00.39-.14l.03.02v.08l.45.46.15-.15-.47-.45zM94 28a.4.4 0 01-.38-.26.42.42 0 01.09-.46.4.4 0 01.7.3.42.42 0 01-.25.38.4.4 0 01-.16.04z" fill="#444053"></path><path d="M128.92 28.8a1 1 0 001-1.01 1 1 0 00-1-1.01 1 1 0 00-1 1 1 1 0 001 1.02z" fill="#B099CD"></path><path d="M112.76 33.13h-8.56c-.2 0-.35.15-.35.35v5.65c0 .19.16.35.35.35h8.56c.2 0 .35-.16.35-.35v-5.65c0-.2-.16-.35-.35-.35zM127.41 33.13h-11.8a.09.09 0 00-.08.09v.83c0 .05.04.09.09.09h11.8c.04 0 .08-.04.08-.1v-.82a.09.09 0 00-.09-.1zM127.41 35.3h-11.8a.09.09 0 00-.08.08v.83c0 .05.04.1.09.1h11.8c.04 0 .08-.05.08-.1v-.83a.09.09 0 00-.09-.09zM127.41 37.46h-11.8a.09.09 0 00-.08.08v.84c0 .05.04.09.09.09h11.8c.04 0 .08-.04.08-.1v-.83a.09.09 0 00-.09-.08zM112.76 43.08h-8.56c-.2 0-.35.16-.35.35v5.65c0 .2.16.35.35.35h8.56c.2 0 .35-.15.35-.35v-5.65c0-.19-.16-.35-.35-.35zM127.41 43.08h-11.8a.09.09 0 00-.08.1V44c0 .05.04.08.09.08h11.8c.04 0 .08-.04.08-.08v-.84a.09.09 0 00-.09-.09zM127.41 45.25h-11.8a.09.09 0 00-.08.09v.83c0 .05.04.09.09.09h11.8c.04 0 .08-.04.08-.09v-.83a.09.09 0 00-.09-.1zM127.4 47.41h-11.77a.1.1 0 00-.1.1v.82c0 .05.04.1.1.1h11.77a.1.1 0 00.1-.1v-.82a.1.1 0 00-.1-.1zM112.76 53.04h-8.56c-.2 0-.35.16-.35.35v5.65c0 .2.16.35.35.35h8.56c.2 0 .35-.16.35-.35v-5.65c0-.2-.16-.35-.35-.35zM127.4 53.04h-11.77a.1.1 0 00-.1.1v.82c0 .05.04.1.1.1h11.77a.1.1 0 00.1-.1v-.82a.1.1 0 00-.1-.1zM127.4 55.2h-11.77a.1.1 0 00-.1.1v.82c0 .05.04.1.1.1h11.77a.1.1 0 00.1-.1v-.82a.1.1 0 00-.1-.1zM127.4 57.37h-11.77a.1.1 0 00-.1.1v.82c0 .05.04.1.1.1h11.77a.1.1 0 00.1-.1v-.82a.1.1 0 00-.1-.1zM112.76 63h-8.56c-.2 0-.35.16-.35.35V69c0 .2.16.35.35.35h8.56c.2 0 .35-.16.35-.35v-5.65c0-.2-.16-.35-.35-.35zM127.4 63h-11.77a.1.1 0 00-.1.1v.81c0 .06.04.1.1.1h11.77a.1.1 0 00.1-.1v-.82a.1.1 0 00-.1-.1zM127.4 65.16h-11.77a.1.1 0 00-.1.1v.82c0 .05.04.1.1.1h11.77a.1.1 0 00.1-.1v-.82a.1.1 0 00-.1-.1zM127.4 67.33h-11.77a.1.1 0 00-.1.1v.81c0 .06.04.1.1.1h11.77a.1.1 0 00.1-.1v-.82a.1.1 0 00-.1-.1zM112.76 72.96h-8.56c-.2 0-.35.15-.35.35v5.64c0 .2.16.36.35.36h8.56c.2 0 .35-.16.35-.36v-5.64c0-.2-.16-.35-.35-.35zM127.4 72.96h-11.77a.1.1 0 00-.1.1v.81c0 .05.04.1.1.1h11.77a.1.1 0 00.1-.1v-.82a.1.1 0 00-.1-.1zM127.4 75.12h-11.77a.1.1 0 00-.1.1v.82c0 .05.04.09.1.09h11.77a.1.1 0 00.1-.1v-.81a.1.1 0 00-.1-.1zM127.4 77.28h-11.77a.1.1 0 00-.1.1v.82c0 .05.04.1.1.1h11.77a.1.1 0 00.1-.1v-.82a.1.1 0 00-.1-.1z" fill="#fff"></path><path d="M58.09 46.92H43.44v.77h14.65v-.77zM46.15 42.86h-1.41v4.06h1.41v-4.06zM48.21 42.86h-1.4v4.06h1.4v-4.06zM50.27 42.86h-1.4v4.06h1.4v-4.06zM52.33 42.86h-1.4v4.06h1.4v-4.06zM54.4 42.86h-1.41v4.06h1.4v-4.06zM56.46 42.86h-1.41v4.06h1.4v-4.06z" fill="#B099CD" opacity=".1"></path><path d="M46.15 43.63h-1.41v.44h1.41v-.44zM48.21 43.63h-1.4v.44h1.4v-.44zM50.27 43.63h-1.4v.44h1.4v-.44zM52.33 43.63h-1.4v.44h1.4v-.44zM54.4 43.63h-1.41v.44h1.4v-.44zM56.46 43.63h-1.41v.44h1.4v-.44zM46.15 45.6h-1.41v.45h1.41v-.44zM48.21 45.6h-1.4v.45h1.4v-.44zM50.27 45.6h-1.4v.45h1.4v-.44zM52.33 45.6h-1.4v.45h1.4v-.44zM54.4 45.6h-1.41v.45h1.4v-.44zM56.46 45.6h-1.41v.45h1.4v-.44zM90.2 48.9H75.55v.77H90.2v-.77z" fill="#B099CD" opacity=".1"></path><path d="M78.27 44.84h-1.41v4.06h1.4v-4.06zM80.33 44.84h-1.41v4.06h1.4v-4.06zM82.39 44.84h-1.41v4.06h1.41v-4.06zM84.45 44.84h-1.4v4.06h1.4v-4.06zM86.51 44.84h-1.4v4.06h1.4v-4.06zM88.58 44.84h-1.42v4.06h1.42v-4.06z" fill="#B099CD" opacity=".1"></path><path d="M78.27 45.6h-1.41v.45h1.4v-.44zM80.33 45.6h-1.41v.45h1.4v-.44zM82.39 45.6h-1.41v.45h1.41v-.44zM84.45 45.6h-1.4v.45h1.4v-.44zM86.51 45.6h-1.4v.45h1.4v-.44zM88.58 45.6h-1.42v.45h1.42v-.44zM78.27 47.58h-1.41v.44h1.4v-.44zM80.33 47.58h-1.41v.44h1.4v-.44zM82.39 47.58h-1.41v.44h1.41v-.44zM84.45 47.58h-1.4v.44h1.4v-.44zM86.51 47.58h-1.4v.44h1.4v-.44zM88.58 47.58h-1.42v.44h1.42v-.44zM90.2 54.5H75.55v.78H90.2v-.77z" fill="#B099CD" opacity=".1"></path><path d="M78.27 50.44h-1.41v4.07h1.4v-4.07zM80.33 50.44h-1.41v4.07h1.4v-4.07zM82.39 50.44h-1.41v4.07h1.41v-4.07zM84.45 50.44h-1.4v4.07h1.4v-4.07zM86.51 50.44h-1.4v4.07h1.4v-4.07zM88.58 50.44h-1.42v4.07h1.42v-4.07z" fill="#B099CD" opacity=".1"></path><path d="M78.27 51.21h-1.41v.44h1.4v-.44zM80.33 51.21h-1.41v.44h1.4v-.44zM82.39 51.21h-1.41v.44h1.41v-.44zM84.45 51.21h-1.4v.44h1.4v-.44zM86.51 51.21h-1.4v.44h1.4v-.44zM88.58 51.21h-1.42v.44h1.42v-.44zM78.27 53.19h-1.41v.44h1.4v-.44zM80.33 53.19h-1.41v.44h1.4v-.44zM82.39 53.19h-1.41v.44h1.41v-.44zM84.45 53.19h-1.4v.44h1.4v-.44zM86.51 53.19h-1.4v.44h1.4v-.44zM88.58 53.19h-1.42v.44h1.42v-.44zM52.42 55.62l-.3-.44 2.11-.35-2.27.01a3.95 3.95 0 01-.08-3.08l3.06 1.6-2.83-2.1a3.88 3.88 0 012.47-1.86 3.8 3.8 0 014.13 1.71 3.93 3.93 0 01-.25 4.5c.18.23.32.47.44.72l-2.74 1.44 2.92-.99a3.94 3.94 0 01-.62 3.65 3.92 3.92 0 01-.97 5.72 3.81 3.81 0 01-5.5-1.6 3.94 3.94 0 01.43-4.12 3.93 3.93 0 010-4.81z" fill="#B099CD" opacity=".1"></path><path d="M59.29 58.03c0 .87-.3 1.72-.83 2.4a3.92 3.92 0 01-.97 5.72 3.81 3.81 0 01-5.5-1.6 3.94 3.94 0 01.43-4.12c-.51-.66 6.87-2.84 6.87-2.4z" fill="#B099CD" opacity=".1"></path><path d="M56.06 67.78l.02.03h-1.3l.01-.03a1.35 1.35 0 01-.09-1.11l.27.03a4.51 4.51 0 001.18-.03c.05.15.08.3.07.46 0 .22-.05.45-.16.65z" fill="#3F3D56" opacity=".2"></path><path d="M51.37 67.8H44.1a3.92 3.92 0 01.04-2.68 3.9 3.9 0 01-1.4-4.6 3.7 3.7 0 01-.41-.33l1.91-.96-2.17.7A3.9 3.9 0 0141.1 57l3.39.62-3.3-1.16a3.92 3.92 0 011.8-2.53 3.81 3.81 0 015.41 1.67 3.94 3.94 0 01.12 3.12c.23.16.44.35.63.56l-2.2 2.2 2.5-1.83a3.93 3.93 0 01.47 3.68 3.9 3.9 0 011.45 4.48z" fill="#B099CD" opacity=".1"></path><path d="M51.37 67.8H44.1a3.92 3.92 0 01.04-2.68c-.68-.47 5.74-4.76 5.86-4.34.26.83.23 1.73-.08 2.55a3.9 3.9 0 011.45 4.48zM84.24 62.53a3.85 3.85 0 01-1.92 1.64 4 4 0 01.01.84l-3.08-.19 3.01.66a3.93 3.93 0 01-1.48 2.32h-4.2v.11h-4.27l.03-.1a3.91 3.91 0 012.34-2.65 3.94 3.94 0 012.44-4.13 4 4 0 01-.03-.54l1.99.8-1.97-1.18a3.93 3.93 0 011.51-2.68l1.81 2.97-1.36-3.27a3.8 3.8 0 014.63.7 3.92 3.92 0 01.54 4.7z" fill="#B099CD" opacity=".1"></path><path d="M81.8 66.67c-.26.44-.6.83-1.02 1.14h-4.2v.1h-4.27l.03-.1a3.91 3.91 0 012.34-2.65c-.03-.28.8-.24 1.9-.05 2.16.36 5.37 1.3 5.22 1.56z" fill="#B099CD" opacity=".1"></path><path d="M63.64 56.28s.52 2.88-.65 3.82c-1.18.95 1 6.6 4.58 5.93 3.59-.65 5.05-5.4 5.05-5.4s-3.6-.75-2.26-4.57l-6.72.22z" fill="#EE8E9E"></path><path d="M63.64 56.28s.52 2.88-.65 3.82c-1.18.95 1 6.6 4.58 5.93 3.59-.65 5.05-5.4 5.05-5.4s-3.6-.75-2.26-4.57l-6.72.22z" fill="#000" opacity=".1"></path><path d="M66.81 58.4c3.29 0 5.95-2.7 5.95-6.03a5.99 5.99 0 00-5.95-6.03 5.99 5.99 0 00-5.95 6.03 5.99 5.99 0 005.95 6.02z" fill="#EE8E9E"></path><path d="M76.59 63.82v4.1H56.95V64a2.55 2.55 0 011.52-2.32l.56-.25a63.35 63.35 0 003.9-1.8c.3-.32.24.09.24.09l-.01.21c-.04.92.1 4.55 4.29 4.24 4.09-.29 4.27-3.09 4.23-3.91 0-.08 0-.15-.02-.23a17.25 17.25 0 013.66 1.58 2.45 2.45 0 011.05 1.17c.14.33.22.68.22 1.03z" fill="#B099CD"></path><path d="M72.49 60.31c-.35 1.63-1.43 4.67-5.35 4.75-4.18.09-4.42-4.12-4.4-5.31a.84.84 0 00.18-.12c.31-.31.25.1.25.1s-.52 4.8 4.28 4.45c4.8-.34 4.2-4.14 4.2-4.14 0-.02.36.1.84.27z" fill="#000" opacity=".1"></path><path d="M59.77 52.67a1 1 0 011.07.4c.22.3.25.68.28 1.03.26.06.4-.24.43-.46.1-.91.1-1.84.4-2.72.3-.88.96-1.73 1.98-2.07.34-.12.71-.16 1.08-.1.21.03.41.1.63.14.74.12 1.54-.23 2.24.02.43.15.7.51.91.87.1.2.21.37.36.52.3.27.75.34 1.18.43.42.08.88.22 1.06.56.17.3.05.64 0 .96-.1.51 0 1.04.23 1.5.08.14.24.32.43.27a.38.38 0 00.2-.17c.49-.69.48-1.58 1.09-2.2.2-.21.46-.37.66-.58a1.31 1.31 0 00.35-1.2c-.11-.47-.5-.86-.8-1.28a5.08 5.08 0 01-.84-1.77.33.33 0 010-.23.61.61 0 01.22-.18.83.83 0 00.27-1.06 1.75 1.75 0 00-.97-.8 6.3 6.3 0 00-1.34-.28c-.3.04-.65-.13-.74-.37-.04-.1-.04-.23-.08-.33a.76.76 0 00-.57-.4 1.65 1.65 0 00-.77.05c-.28.08-.6.2-.85.06-.13-.08-.2-.21-.34-.27-.29-.12-.58.12-.78.33-.2.2-.44.37-.7.48a1.04 1.04 0 01-.88-.06c-.2-.13-.3-.33-.45-.5-.3-.26-.67-.4-1.06-.42-.4-.03-.81.02-1.2.13-.75.18-1.46.48-2.1.9-.33.18-.61.44-.81.75-.12.25-.19.52-.18.79-.04.85.24 1.75.97 2.35-.44.18-.6.64-.7 1.05a5.85 5.85 0 00-.27 1.98c.03.34.13.69.08 1.03-.04.16-.06.33-.07.5a.47.47 0 00.38.35z" fill="#454B69"></path><g fill="#000" opacity=".1"><path d="M74.25 49.61c-.06.14-.15.27-.25.38-.2.21-.47.38-.67.58-.6.62-.6 1.52-1.08 2.21a.37.37 0 01-.2.17c-.19.05-.35-.13-.43-.28a2.5 2.5 0 01-.21-.57l-.03.14c-.09.51 0 1.04.24 1.5.08.14.24.32.43.27a.38.38 0 00.2-.17c.48-.69.47-1.58 1.08-2.2.2-.21.47-.37.67-.58a1.31 1.31 0 00.25-1.45zM72.92 45.34a.6.6 0 00-.21.18.32.32 0 000 .23c.05.22.13.44.21.66a.83.83 0 00.28-1.06 1.02 1.02 0 00-.1-.17.82.82 0 01-.18.16zM60.36 46.68a2.68 2.68 0 01-.93-1.68 3.03 3.03 0 00.43 2.18 1 1 0 01.5-.5zM71.38 51.19c.06-.33.18-.67.01-.97-.18-.33-.64-.47-1.06-.56-.43-.08-.89-.15-1.18-.42a1.89 1.89 0 01-.36-.52c-.2-.36-.48-.72-.91-.88-.7-.24-1.5.1-2.24-.01-.22-.04-.42-.11-.63-.15a2.25 2.25 0 00-1.08.1 3.23 3.23 0 00-1.98 2.07c-.3.88-.3 1.81-.4 2.72-.03.22-.17.52-.43.47a2 2 0 00-.28-1.04 1.02 1.02 0 00-1.07-.4.52.52 0 01-.3-.19c.02.13.02.27 0 .4-.04.16-.06.33-.06.5a.47.47 0 00.37.36 1 1 0 011.07.4c.22.3.25.68.28 1.03.25.06.4-.24.42-.46.1-.91.1-1.84.4-2.72.31-.88.97-1.73 1.98-2.07.35-.12.72-.15 1.08-.1.22.03.42.11.63.14.74.13 1.55-.23 2.24.02.44.15.71.51.92.87.09.2.2.37.35.53.3.27.76.33 1.18.42.43.08.86.22 1.05.52v-.06zM59.47 50.74c.02-.27 0-.54-.05-.8-.04.27-.05.56-.03.84l.03.21.05-.25z" opacity=".1"></path></g><path d="M52.5 73.74v-2.6c0-.02 0-.04.02-.06a.07.07 0 01.05-.02h.29l.05.02.02.06v1.08l1.19-1.11a.2.2 0 01.28.04.2.2 0 01.03.1v2.36a.2.2 0 01-.11.17.2.2 0 01-.2-.02l-1.19-1.11v1.08c0 .02 0 .04-.02.05a.07.07 0 01-.05.02h-.3a.07.07 0 01-.07-.06zM81.13 71.14v2.6a.08.08 0 01-.02.05.07.07 0 01-.05.02h-.29c-.02 0-.03 0-.05-.02a.07.07 0 01-.02-.05v-1.08l-1.19 1.1a.2.2 0 01-.28-.03.2.2 0 01-.03-.1v-2.37a.2.2 0 01.11-.18.2.2 0 01.2.03l1.19 1.1v-1.07a.07.07 0 01.07-.07h.29a.07.07 0 01.07.07zM66.33 73.85h-.58a.28.28 0 01-.2-.08.3.3 0 01-.09-.2V71.4a.3.3 0 01.09-.2.28.28 0 01.2-.09h.58c.07 0 .15.03.2.08.05.06.08.13.08.2v2.16c0 .08-.03.16-.08.2a.28.28 0 01-.2.1zm1.84-.28V71.4a.3.3 0 00-.09-.2.28.28 0 00-.2-.09h-.58a.28.28 0 00-.2.08.29.29 0 00-.09.2v2.16c0 .08.03.16.08.2.06.06.13.1.2.1h.59a.28.28 0 00.2-.09.29.29 0 00.09-.2z" fill="#444053"></path><path d="M83.9 67.63H49.73V68H83.9v-.38z" fill="#444053" opacity=".6"></path><path d="M60.27 68.73c.5 0 .9-.4.9-.91a.9.9 0 00-.9-.92c-.5 0-.9.41-.9.92 0 .5.4.91.9.91z" fill="#444053"></path><path d="M60.27 67.63H49.72V68h10.55v-.38z" fill="#444053"></path><path d="M136.34 111.11c4.68 0 8.47-.74 8.47-1.65 0-.9-3.79-1.65-8.47-1.65-4.68 0-8.47.74-8.47 1.65 0 .91 3.8 1.65 8.47 1.65z" fill="#B099CD"></path><path d="M136.2 110.07c.55 0 .99-.59.99-1.3 0-.73-.44-1.32-.99-1.32-.54 0-.98.59-.98 1.31 0 .72.44 1.3.98 1.3z" fill="#3F3D56"></path><path d="M136.2 108.47c.55 0 .99-.59.99-1.3 0-.73-.44-1.31-.99-1.31-.54 0-.98.58-.98 1.3 0 .72.44 1.31.98 1.31z" fill="#3F3D56"></path><path d="M136.2 106.87c.55 0 .99-.58.99-1.3 0-.73-.44-1.31-.99-1.31-.54 0-.98.58-.98 1.3 0 .73.44 1.31.98 1.31z" fill="#3F3D56"></path><path d="M136.2 105.27c.55 0 .99-.58.99-1.3 0-.73-.44-1.31-.99-1.31-.54 0-.98.58-.98 1.3 0 .73.44 1.31.98 1.31z" fill="#3F3D56"></path><path d="M136.2 103.67c.55 0 .99-.58.99-1.3 0-.73-.44-1.31-.99-1.31-.54 0-.98.58-.98 1.3 0 .73.44 1.31.98 1.31z" fill="#3F3D56"></path><path d="M136.2 102.08c.55 0 .99-.59.99-1.31 0-.72-.44-1.3-.99-1.3-.54 0-.98.58-.98 1.3 0 .72.44 1.3.98 1.3z" fill="#3F3D56"></path><path d="M136.2 100.48c.55 0 .99-.59.99-1.31 0-.72-.44-1.3-.99-1.3-.54 0-.98.58-.98 1.3 0 .72.44 1.3.98 1.3z" fill="#3F3D56"></path><path d="M139.9 88.23c.13-.17.25-.36.36-.55l-2.6-.43 2.81.02a4.85 4.85 0 00.09-3.8l-3.76 1.99 3.47-2.59a4.77 4.77 0 00-3.03-2.27 4.66 4.66 0 00-5.05 2.1 4.82 4.82 0 00.28 5.53c-.21.27-.4.56-.54.87l3.36 1.77-3.58-1.22a4.84 4.84 0 00.76 4.5 4.81 4.81 0 003.71 7.73 4.68 4.68 0 004.25-2.69 4.84 4.84 0 00-.54-5.05 4.82 4.82 0 000-5.92v.01z" fill="#B099CD"></path><path d="M131.46 91.19a4.8 4.8 0 001 2.96 4.81 4.81 0 003.72 7.74 4.68 4.68 0 004.25-2.7 4.84 4.84 0 00-.54-5.04c.64-.82-8.43-3.5-8.43-2.96z" fill="#000" opacity=".1"></path><path d="M41.31 120c7.8 0 14.1-1.36 14.1-3.03 0-1.67-6.3-3.03-14.1-3.03-7.79 0-14.1 1.36-14.1 3.03 0 1.67 6.31 3.03 14.1 3.03z" fill="#B099CD" opacity=".1"></path><path d="M46.03 116.62c-.28-.1-.59-.1-.88-.12a2.73 2.73 0 01-1.64-.8c-.28-.3-.5-.64-.65-1.02l.29.11c-.29-.67.01-1.43.27-2.1.45-1.16.87-2.32 1.26-3.49 1-2.96 1.86-6.03 1.84-9.18 0-1.13-.2-2.21-.25-3.35-.03-.84.1-1.68.1-2.52l-.01-.36a2.24 2.24 0 00.75-1.82 8.7 8.7 0 00-.27-1.43c-.1-.32-.23-.62-.34-.93-.21-.6-.36-1.2-.54-1.81a.6.6 0 01.2.05.43.43 0 01-.1-.19c-.1-.38-.16-.78-.17-1.18l.12-.05c.06-.4.04-.79-.05-1.17.06-.62.17-1.24.24-1.86.02-.23.01-.52-.2-.58-.04-.33-.06-.66-.08-1l-.17-3.48a110.3 110.3 0 01-.15-3.5c-.01-.75-.02-1.51-.2-2.22.04-.34 0-.69-.1-1.01-.26-.85-1.08-1.53-1.92-1.48a3.85 3.85 0 00-.9-.93c.16-.38.36-.77.52-1.08a3.5 3.5 0 002.32-3.36 3.7 3.7 0 00-.4-1.67l.07-.2c.07-.3.05-.63-.07-.93a2.76 2.76 0 00-.26-.55l-.07-.11a4.77 4.77 0 00-.93-1.01 2.05 2.05 0 00-1.56-.4c-.2.01-.4.03-.6.02h-.2c-.34-.05-.69-.13-1.02-.22l-.18-.04a3.22 3.22 0 00-.65-.06h-.15l-.47.05-.16.03a4.46 4.46 0 00-1.29.41l-.03.02-.1.06-.03.02-.12.08h-.01a5.19 5.19 0 00-1.97 3.68c-.19 1.63.14 3.27.47 4.87l.3 1.44.04.2c-.42.34-.74.8-.94 1.31a5.7 5.7 0 00-.26 2.29c0 .16 0 .32.02.47l-.09.9c-.09 1.4.08 2.82.04 4.22-.04 1.08-.2 2.16-.12 3.24.07.95.32 1.87.57 2.8l.36 1.3c.01.07.04.13.09.18.06.04.13.06.2.04-.23.54-.43 1.1-.58 1.66-.11.35-.18.7-.22 1.07-.04.66.1 1.31.26 1.96a812.75 812.75 0 011.16 4.93c.31 1.33.63 2.68.68 4.05.04.7-.01 1.39-.14 2.07a18.2 18.2 0 00-.17 6.18c.23 1.73.62 3.44 1.15 5.1l.35-.17-.05.1a11.7 11.7 0 00-.7 1.5 6.92 6.92 0 00-.2 2.14c.07.22.3.33.5.39.62.18 1.26.11 1.9.03l.01.04c.08.22.3.33.52.4.88.24 1.8 0 2.71-.08.91-.09 1.8-.02 2.68-.24.13-.02.25-.07.37-.14.22-.16.39-.4.46-.66a.85.85 0 00.06-.21c.03-.32-.23-.6-.52-.7zm-3-13.37c-.06.34-.15.67-.3.98a18.83 18.83 0 00-1.45 4.64c-.2 1.06-.3 2.14-.33 3.21-.01.8.02 1.63-.3 2.34l.11-.02-.1.2-.02.04c-.2-.35-.33-.72-.4-1.11l-.16-.03c-.4-2.28-.54-4.6-.41-6.91 0-.28.04-.56.11-.83.07-.23.2-.45.29-.67.14-.38.24-.77.28-1.17.16-1.03.22-2.07.18-3.11-.03-.98.2-1.95.38-2.93.1-.46.18-.93.22-1.4l.01-.09a14.09 14.09 0 011.75 4.6c.17.74.22 1.5.13 2.26zm-6.1-20.85l.04.04c.14.12.26.26.38.4.06.06.1.14.12.22.04.21-.13.4-.27.55l-.17.2-.1-1.41z" fill="url(#paint0_linear)"></path><path d="M34.95 73.35l-.15 1.23c-.06.41-.1.83-.14 1.24-.1 1.4.08 2.79.04 4.18-.04 1.07-.2 2.14-.13 3.2.08.95.34 1.87.6 2.78l.38 1.3c.02.06.05.13.1.18.07.04.16.05.24.03l1.67-.15c-.11-.5-.23-1-.29-1.52l-.1-1.2-.28-3.75-.18-2.2c-.08-.95-.16-1.9-.4-2.83-.23-.93-.7-1.79-1.36-2.49z" fill="#B099CD"></path><path d="M34.95 73.35l-.15 1.23c-.06.41-.1.83-.14 1.24-.1 1.4.08 2.79.04 4.18-.04 1.07-.2 2.14-.13 3.2.08.95.34 1.87.6 2.78l.38 1.3c.02.06.05.13.1.18.07.04.16.05.24.03l1.67-.15c-.11-.5-.23-1-.29-1.52l-.1-1.2-.28-3.75-.18-2.2c-.08-.95-.16-1.9-.4-2.83-.23-.93-.7-1.79-1.36-2.49z" fill="#000" opacity=".1"></path><path d="M37.93 115.06c-.1.2-.19.4-.26.6-.19.57-.22 1.19-.25 1.79 0 .11 0 .23.03.34.09.22.32.33.54.39.93.25 1.9.01 2.85-.07.95-.09 1.9-.03 2.81-.23.14-.03.27-.08.39-.14.23-.16.4-.38.49-.65a.85.85 0 00.06-.22c.03-.31-.25-.59-.54-.7-.3-.1-.62-.08-.93-.11a2.98 2.98 0 01-2.6-2.48 6.32 6.32 0 00-1.71.06c-.19.1-.3.36-.41.54-.17.29-.33.58-.47.88z" fill="#A26565"></path><path d="M37.93 115.06c-.1.2-.19.4-.26.6-.19.57-.22 1.19-.25 1.79 0 .11 0 .23.03.34.09.22.32.33.54.39.93.25 1.9.01 2.85-.07.95-.09 1.9-.03 2.81-.23.14-.03.27-.08.39-.14.23-.16.4-.38.49-.65a.85.85 0 00.06-.22c.03-.31-.25-.59-.54-.7-.3-.1-.62-.08-.93-.11a2.98 2.98 0 01-2.6-2.48 6.32 6.32 0 00-1.71.06c-.19.1-.3.36-.41.54-.17.29-.33.58-.47.88z" fill="#000" opacity=".1"></path><path d="M40.47 115.52c-.1.2-.18.4-.26.6a6.5 6.5 0 00-.21 2.13c.08.22.32.33.54.39.92.25 1.9.01 2.85-.08.94-.08 1.89-.02 2.8-.23.14-.03.27-.08.39-.14.23-.16.4-.38.5-.65a.85.85 0 00.05-.22c.03-.31-.24-.59-.54-.7-.3-.1-.62-.08-.93-.11a2.98 2.98 0 01-2.6-2.48 6.36 6.36 0 00-1.71.06c-.19.1-.3.36-.41.54l-.47.89z" fill="#A26565"></path><path d="M47.1 100.19c.02 3.12-.88 6.17-1.93 9.1a84.1 84.1 0 01-1.32 3.44c-.28.68-.59 1.43-.3 2.1a4.94 4.94 0 00-2.61-.38c.34-.7.3-1.53.32-2.3.03-1.07.14-2.14.34-3.19.3-1.6.82-3.14 1.53-4.6.15-.3.25-.63.3-.97.12-.74.03-1.5-.12-2.24a13.44 13.44 0 00-1.84-4.56l-.01.1c-.05.46-.13.92-.23 1.38-.2.96-.44 1.93-.4 2.9.04 1.03-.03 2.06-.19 3.08-.05.4-.16.79-.3 1.16-.1.22-.23.43-.31.67-.08.26-.12.54-.12.82-.11 2.34 0 4.73.47 7.03-.79-.06-1.58.17-2.3.53a28.97 28.97 0 01-1.2-5.06c-.31-2.04-.25-4.12.18-6.13.14-.67.19-1.36.15-2.04-.06-1.37-.4-2.7-.72-4.03l-.5-2.02-.71-2.87a6.18 6.18 0 01-.27-1.94c.03-.36.1-.72.22-1.06.36-1.16.89-2.27 1.58-3.26 2.74.15 5.52-.1 8.26-.32.13-.03.27 0 .39.06.1.1.15.23.15.36l1.03 5.92c.17.82.27 1.66.3 2.5 0 .83-.13 1.67-.1 2.5.04 1.13.25 2.2.26 3.32z" fill="#454B69"></path><path d="M41.46 96.68c-.05.47-.13.93-.23 1.39-.6-1.05-1.24-2.07-1.79-3.14l-.41-.84-.4-.84-.23-.47c-.1-.23-.2-.47-.25-.72.2-.04.7.5.84.65.3.3.59.62.85.96.33.37.63.76.9 1.18.34.56.59 1.19.72 1.83z" fill="#000" opacity=".1"></path><path d="M43.75 67.98s-1.53 2.46-1.24 2.98c.28.51-4.8-.46-4.8-.46s2.76-2.46 2.48-3.5c-.28-1.02 3.56.98 3.56.98z" fill="#EFB7B9"></path><path d="M42.4 68.72c1.9 0 3.44-1.56 3.44-3.49 0-1.92-1.54-3.49-3.45-3.49a3.47 3.47 0 00-3.44 3.5c0 1.92 1.54 3.48 3.44 3.48z" fill="#EFB7B9"></path><path d="M43.8 70.56a3.5 3.5 0 00-1.45-1.18c-.33-.12-.68-.2-1.03-.26l-1.37-.24c-.34-.06-.7-.12-1.01.02-.16.08-.3.2-.43.32-.48.45-.94.94-1.54 1.2-.16.07-.34.12-.5.2a2.9 2.9 0 00-1.46 1.58c-.3.71-.3 1.49-.28 2.26 0 .27.03.54.08.8.07.25.15.5.26.73.19.5.35 1.02.47 1.55.36 1.38.66 2.77.9 4.18.01.2.07.4.17.58.13.18.29.34.47.46.15.12.28.26.4.4.06.06.1.14.13.22.04.2-.14.38-.29.54-.3.31-.52.7-.64 1.13-.07.09-.1.2-.1.31.03.08.04.17.03.25a.56.56 0 01-.13.2.77.77 0 00-.14.62c1.07.47 2.2.75 3.37.8.29.02.57.02.86.05l.6.1c.3.02.59.03.88.02 1.54-.03 3.12-.07 4.52-.69.14-.73-.15-1.48-.33-2.2-.28-1.15-.35-2.33-.57-3.5-.14-.8-.35-1.58-.48-2.38a5.9 5.9 0 01.07-2.4c.2-.7.25-1.4.45-2.1.2-.68.34-1.43.12-2.1-.29-.85-1.15-1.52-2.03-1.47z" fill="#B099CD"></path><path d="M45.5 63.38c.16-.62-.17-1.26-.56-1.77a2.96 2.96 0 00-1.64-1.16c-.55-.11-1.1.02-1.66-.02-.49-.04-.96-.22-1.45-.29a4.52 4.52 0 00-1.32.05c-.41.06-.82.18-1.2.34-1.47.66-2.33 2.29-2.53 3.9-.2 1.6.15 3.23.5 4.82l.31 1.43c.33 1.5.66 3 .75 4.52a9.7 9.7 0 01-.7 4.5 9.61 9.61 0 004.38-5.03c.22-.59.39-1.2.63-1.78.22-.5.49-.97.68-1.48.21-.58.31-1.19.3-1.8-.01-.47-.09-.92-.08-1.39.02-.46.13-.94.45-1.27.28-.3.67-.44 1.04-.63.56-.3 1.06-.71 1.45-1.22.22-.3.24-.44.3-.78.05-.34.25-.61.34-.94z" fill="#A26565"></path><path d="M45.5 89.6c.03.36-.03.73.04 1.08.06.27.2.5.28.77.08.3.12.6.12.92.01.26 0 .57-.24.7-.1.05-.22.05-.32.1-.1.04-.2.17-.13.26.06.1.16.09.25.1.1.02.2.12.15.2a.16.16 0 01-.09.06 1 1 0 00-.26.13.28.28 0 00-.11.26.16.16 0 00.08.1.16.16 0 00.15 0 .73.73 0 00-.07.3c.36.15.77-.05 1.11-.26a2.16 2.16 0 001.26-2.12 8.01 8.01 0 00-.3-1.42c-.09-.3-.22-.6-.34-.9-.24-.66-.4-1.33-.62-2a.3.3 0 00-.1-.16.3.3 0 00-.17-.03c-.25-.02-.5 0-.74.07-.14.04-.38.14-.45.28-.07.15.04.27.1.39.2.36.34.76.4 1.17z" fill="#EFB7B9"></path><path d="M45.26 72.07c.08.08.14.16.19.26.49.9.5 1.98.51 3 .03 1.16.1 2.31.16 3.48l.18 3.46c.02.33.04.66.09.99.21.05.22.34.2.58-.16 1.4-.55 2.86-.14 4.22.01.07.04.13.1.19a1.1 1.1 0 00-.64-.01c-.2.04-.4.12-.61.16-.26.06-.55.09-.73.3-.2-.62-.36-1.24-.48-1.87-.1-.58-.12-1.17-.35-1.7-.1-.22-.22-.42-.33-.63a13.7 13.7 0 01-1.18-3.5 5.18 5.18 0 01-.1-1.74c.05-.27.07-.53.08-.8a6.22 6.22 0 00-.11-.84 5.72 5.72 0 01.17-2.44c.21-.74.4-1.51.85-2.13.45-.62 1.39-.97 2.14-.98z" fill="#000" opacity=".1"></path><path d="M45.43 71.95c.08.08.14.17.19.26.49.9.5 1.98.51 3.01.03 1.16.1 2.31.16 3.46l.18 3.47c.02.33.04.66.08.99.22.05.23.34.2.57-.15 1.42-.54 2.87-.14 4.23.02.07.05.13.1.18a1.1 1.1 0 00-.64 0c-.2.04-.4.12-.6.16-.26.06-.55.09-.73.29-.2-.61-.36-1.24-.47-1.87-.1-.58-.13-1.17-.36-1.7a13.65 13.65 0 01-1.5-4.12 5.18 5.18 0 01-.1-1.75c.1-.55.1-1.1-.04-1.65a5.71 5.71 0 01.17-2.43c.21-.74.4-1.51.85-2.13.46-.62 1.39-.95 2.14-.97z" fill="#B099CD"></path><g fill="#000" opacity=".1"><path d="M44.94 61.61a2.96 2.96 0 00-1.64-1.16c-.55-.11-1.1.02-1.66-.02-.49-.04-.96-.22-1.45-.29a4.52 4.52 0 00-1.32.05c-.41.06-.82.18-1.2.34-.21.1-.4.21-.6.34a5.02 5.02 0 012.39-.34c.49.07.95.24 1.44.28.56.05 1.12-.08 1.66.03.67.13 1.22.62 1.64 1.16.4.5.72 1.15.56 1.77-.09.33-.3.61-.35.95-.06.33-.07.47-.3.77-.3.39-.64.72-1.04.99.1-.06.22-.1.33-.16.56-.3 1.06-.72 1.45-1.23.22-.3.24-.43.3-.77.05-.34.25-.62.34-.95.17-.6-.16-1.25-.55-1.76zM42.36 66.96c.06-.07.12-.12.19-.17-.33.16-.67.3-.93.57-.31.34-.42.82-.44 1.28-.02.46.06.92.07 1.38.02.62-.09 1.23-.3 1.8-.19.51-.46.98-.67 1.49-.25.57-.41 1.19-.63 1.78a9.65 9.65 0 01-3.62 4.56l-.03.06a9.61 9.61 0 004.38-5.02c.22-.6.39-1.2.63-1.79.22-.5.49-.97.68-1.48.21-.57.31-1.18.3-1.8-.01-.46-.09-.92-.08-1.38.02-.46.13-.95.45-1.28z" opacity=".1"></path></g><defs><linearGradient gradientUnits="userSpaceOnUse" id="paint0_linear" x1="40.84" x2="40.84" y1="118.75" y2="59.6"><stop stop-color="gray" stop-opacity=".25"></stop><stop offset=".54" stop-color="gray" stop-opacity=".12"></stop><stop offset="1" stop-color="gray" stop-opacity=".1"></stop></linearGradient><clipPath id="clip0"><path d="M0 0h160.98v120H0z" fill="#fff"></path></clipPath></defs></svg>