<svg fill="none" height="120" width="167" xmlns="http://www.w3.org/2000/svg" ><path d="M166.96 72.2c0 20.96-12.44 28.28-27.78 28.28-15.35 0-27.79-7.32-27.79-28.29s27.79-47.64 27.79-47.64 27.78 26.67 27.78 47.64z" fill="#F2F2F2"></path><path d="M138.16 97.27l.29-17.55 11.84-21.7-11.8 18.95.13-7.89 8.16-15.7-8.13 13.61.23-14.19 8.74-12.5-8.7 10.27.14-26.02-.9 34.45.08-1.42-8.89-13.63 8.74 16.35-.83 15.85-.02-.42L127 61.4l10.2 15.83-.1 1.98-.01.03v.16L135 119.6h2.81l.34-20.77 10.18-15.79-10.16 14.23z" fill="#114B5F"></path><path d="M15.03 106.93c0 5.67-3.37 7.65-7.52 7.65-4.15 0-7.51-1.98-7.51-7.65s7.51-12.89 7.51-12.89 7.52 7.22 7.52 12.89z" fill="#F2F2F2"></path><path d="M7.24 113.71l.08-4.75 3.2-5.87-3.2 5.13.04-2.13 2.21-4.25-2.2 3.68.06-3.84L9.8 98.3l-2.36 2.78.04-7.04-.24 9.32.02-.39-2.4-3.68 2.36 4.42L7 108l-.01-.11L4.22 104l2.76 4.28-.03.53V108.88l-.57 10.87h.76l.1-5.62 2.75-4.27-2.75 3.85z" fill="#114B5F"></path><path d="M1.06 119.77H152.3" stroke="#3F3D56" stroke-miterlimit="10" stroke-width="2"></path><path d="M152.39 114.67c0 3.83-2.28 5.17-5.08 5.17h-.2l-.38-.02c-2.54-.18-4.5-1.59-4.5-5.15 0-3.7 4.7-8.35 5.06-8.7l.02-.02s5.08 4.88 5.08 8.72z" fill="#B099CD"></path><path d="M147.12 119.25l1.86-2.6-1.86 2.89v.3l-.4-.02.2-3.84v-.03l.03-.36-1.87-2.9 1.87 2.62v.08l.16-2.9-1.6-2.99 1.62 2.48.16-6v-.03.02l-.03 4.74 1.6-1.88-1.6 2.29-.05 2.6 1.49-2.5-1.5 2.88-.02 1.44 2.16-3.47-2.17 3.97-.05 3.21z" fill="#114B5F"></path><path d="M98.2 27.16h-.97a.4.4 0 00-.39.39v13.73c0 .21.18.39.4.39h.97a.4.4 0 00.39-.4V27.56a.4.4 0 00-.4-.4zM39.18 15.79h-.47a.26.26 0 00-.26.25v4.27c0 .14.12.26.26.26h.47c.14 0 .26-.12.26-.26v-4.27a.26.26 0 00-.26-.25zM39.24 24.53h-.53a.29.29 0 00-.3.3v7.73c0 .16.14.29.3.29h.53c.16 0 .29-.13.29-.29v-7.74a.29.29 0 00-.3-.29zM39.22 35.76h-.51a.27.27 0 00-.28.27v7.84c0 .15.13.28.28.28h.5c.16 0 .28-.13.28-.28v-7.84a.27.27 0 00-.27-.27z" fill="#3F3D56"></path><path d="M91.71 0H45.1a6.09 6.09 0 00-6.08 6.1v107.52c0 3.37 2.72 6.1 6.08 6.1h46.62a6.09 6.09 0 006.08-6.1V6.1C97.8 2.73 95.07 0 91.71 0z" fill="#3F3D56"></path><path d="M70.5 3.57h-7.34c-.24 0-.43.2-.43.44v.8c0 .24.2.44.43.44h7.35c.24 0 .43-.2.43-.44v-.8c0-.24-.2-.44-.43-.44zM73.13 5.36a.95.95 0 100-1.9.95.95 0 000 1.9z" fill="#E6E8EC"></path><path d="M94.16 7.8v104.12a4.68 4.68 0 01-4.67 4.67H47.31a4.66 4.66 0 01-4.67-4.67V7.8a4.69 4.69 0 014.67-4.68h6.31v.81a3.86 3.86 0 003.85 3.85h21.45a3.84 3.84 0 003.84-3.85v-.81h6.73a4.66 4.66 0 014.67 4.68z" fill="#fff"></path><path d="M94.19 27.26h-51.6v59.4h51.6v-59.4z" fill="#F2F2F2"></path><path d="M46.33 94.87l-.27-.24c-.97-.89-1.6-1.47-1.6-2.18a1.02 1.02 0 011.03-1.04 1.1 1.1 0 01.84.4 1.1 1.1 0 011.24-.33 1.02 1.02 0 01.63.97c0 .71-.64 1.3-1.6 2.18l-.27.24z" fill="#FF6584"></path><path d="M56.18 93.97l.52.15a1.78 1.78 0 012.82-.78l-.8.78h2v-1.95l-.8.77a2.32 2.32 0 00-3.74 1.03z" fill="#F2F2F2"></path><path d="M45.99 22.82a2.39 2.39 0 100-4.78 2.39 2.39 0 000 4.78zM72.39 19.06H50.25v2.73h22.14v-2.73z" fill="#B099CD"></path><path d="M66.6 98.94H44.45v2.73H66.6v-2.73zM91.3 104.9H44.44v2.73H91.3v-2.73zM54 94.7l-.6-1.03a1.52 1.52 0 00-1.66-2.07 1.51 1.51 0 00-.84 2.53 1.51 1.51 0 001.98.2l1.11.37z" fill="#F2F2F2"></path><path d="M64.02 41.19a6.8 6.8 0 00-5.31 8.05l1.4 6.89 1.58-.32.11-.73.33.64 9.57-1.97.11-.73.33.64 1.33-.27-1.41-6.88a6.84 6.84 0 00-8.04-5.32z" fill="#2F2E41"></path><path d="M75.88 62.31l8.18 4.95-1.03 2.4-7.66-3.6.51-3.75z" fill="#9F616A"></path><path d="M65.49 67.94s-16.52 0-19.25 4.27c-2.72 4.27-.5 10.24 8 11.6 8.52 1.37 34.41 2.06 36.46-3.06 2.04-5.12.5-8.03.5-8.03s-8.85-6.14-25.71-4.78z" fill="#B099CD"></path><path d="M80.14 72.04l9.03 3.41s3.74-2.73 1.87-5.8-10.4-20.82-10.4-20.82-2.38-3.42.69-5.3c3.07-1.87 4.26 1.2 4.26 1.2s-.17.68 1.02.17c1.2-.51 3.4 1.2 2.21 3.93-1.19 2.73-2.04 3.41.52 3.24.92-.06 1.73-.72 2.39-1.55 1.27-1.57.7-2.84.6-4.86-.16-3.46-.43-5.71-1.3-7.07-1.18-1.88-2.89-3.42-7.31-2.56-4.43.85-10.9 5.12-9.37 11.26 1.53 6.15 4.94 12.97 4.94 12.97s2.38 9.56.85 11.78z" fill="#B099CD"></path><path d="M80.14 72.04c-1.47.4-3.32.6-5.31.67-3.47.1-7.38-.2-10.5-.55-3.37-.38-5.82-.8-5.82-.8 1.14-1.07 2.89-1.49 4.94-1.64 2.56-.2 5.59.02 8.51-.07 1.08-.04 2.16.04 3.22.24a11.1 11.1 0 014.96 2.15z" fill="#000" opacity=".1"></path><path d="M65.4 53.7a4.77 4.77 0 100-9.56 4.77 4.77 0 000 9.55z" fill="#9F616A"></path><path d="M64.8 52.75s.86 3.25 0 3.42c-.84.17-2.89 1.02-2.89 1.02l2.56 1.03 4.77 4.43 4.09 2.05 2.04-.68v-3.76l-3.07-4.78s-2.04.69-2.55-1.53c-.51-2.22-1.53-3.07-1.53-3.07l-3.41 1.87z" fill="#9F616A"></path><path d="M63.62 57.36h-2.05s-3.57 1.2-5.62 3.93c-2.04 2.73-5.28 5.46-5.28 5.46s-2.21 3.07-1.02 7.34c1.2 4.27 2.9 7.34 4.43 6.48 1.53-.85-2.22-7-2.22-7l1.03-3.75s5.28-6.14 7.49-5.97c2.21.17 2.38 2.05 2.38 2.05l4.77 1.36 1.54-3.24-.85-3.42-4.6-3.24z" fill="#9F616A"></path><path d="M75.88 68.11a6.32 6.32 0 00-.7 1.78c-.21.93-.33 1.87-.35 2.82-3.47.1-7.38-.2-10.5-.55-.28-.74-.58-1.59-.88-2.44a44.77 44.77 0 01-1.54-5.02c0-.68 3.58.51 4.43.34.85-.17 1.2-2.9 0-4.26-1.2-1.37-4.68-3.67-4.68-3.67l1.19-.35s2.64 1.97 8.09 5.21c5.45 3.24 3.24-1.88 3.24-1.88l-3.15-4.86h1.36s2.64 4.52 4 6.57c1.36 2.05.85 4.1-.51 6.31z" fill="#3F3D56"></path><path d="M68.78 42.47l-8.64 1.77 1.09 5.3 8.63-1.76-1.08-5.31z" fill="#2F2E41"></path><path d="M87.38 43.11a2.56 2.56 0 100-5.12 2.56 2.56 0 000 5.12z" fill="#3F3D56"></path><path d="M87.38 41.91a1.36 1.36 0 100-2.72 1.36 1.36 0 000 2.72z" fill="#fff"></path><path d="M12.39 70.1l-.18 1.35c-.05.46-.11.91-.14 1.37-.11 1.53.09 3.06.03 4.59-.04 1.17-.22 2.35-.13 3.52a15 15 0 00.67 3.05l.42 1.43a.28.28 0 00.12.21.28.28 0 00.25.03l1.85-.17c-.12-.55-.25-1.12-.31-1.67l-.12-1.32c-.1-1.37-.2-2.75-.32-4.12l-.2-2.41c-.08-1.05-.17-2.1-.43-3.12a6.2 6.2 0 00-1.51-2.74z" fill="#B099CD"></path><path d="M12.97 69.91l-.18 1.35c-.06.46-.11.91-.15 1.37-.1 1.53.1 3.06.04 4.59-.04 1.17-.22 2.35-.13 3.52a15 15 0 00.66 3.05l.42 1.43a.28.28 0 00.25.25l.12-.01 1.86-.17c-.12-.55-.25-1.12-.31-1.67-.06-.44-.09-.88-.12-1.32-.1-1.37-.2-2.75-.32-4.12l-.2-2.41c-.08-1.05-.17-2.1-.43-3.12a6.2 6.2 0 00-1.51-2.74z" fill="#3A0083" opacity=".1"></path><path d="M15.7 116.29c-.12.21-.21.43-.3.66a7.06 7.06 0 00-.23 2.34c.09.24.35.36.6.42 1.02.28 2.1.02 3.17-.07 1.04-.1 2.1-.03 3.12-.26.15-.03.3-.08.43-.15.26-.17.45-.42.54-.71a.92.92 0 00.07-.24c.03-.35-.27-.65-.6-.76-.33-.12-.7-.1-1.04-.13a3.26 3.26 0 01-2.89-2.73 7.13 7.13 0 00-1.89.06c-.21.12-.34.4-.45.6-.2.32-.37.64-.54.97z" fill="#3F3D56"></path><path d="M15.7 116.29c-.12.21-.21.43-.3.66a7.06 7.06 0 00-.23 2.34c.09.24.35.36.6.42 1.02.28 2.1.02 3.17-.07 1.04-.1 2.1-.03 3.12-.26.15-.03.3-.08.43-.15.26-.17.45-.42.54-.71a.92.92 0 00.07-.24c.03-.35-.27-.65-.6-.76-.33-.12-.7-.1-1.04-.13a3.26 3.26 0 01-2.89-2.73 7.13 7.13 0 00-1.89.06c-.21.12-.34.4-.45.6-.2.32-.37.64-.54.97z" fill="#000" opacity=".1"></path><path d="M18.52 116.45c-.11.22-.2.44-.29.66a7.06 7.06 0 00-.24 2.34c.1.24.36.36.6.43 1.03.27 2.11.01 3.17-.08 1.04-.1 2.1-.03 3.12-.26.15-.03.3-.08.43-.15.26-.17.45-.42.55-.71a.91.91 0 00.06-.24c.03-.34-.27-.65-.6-.76-.33-.12-.69-.1-1.03-.13a3.26 3.26 0 01-2.9-2.73 7.13 7.13 0 00-1.89.07c-.2.11-.33.4-.45.6-.2.3-.37.63-.53.96z" fill="#3F3D56"></path><path d="M25.88 99.6c.03 3.43-.97 6.78-2.14 10a91.13 91.13 0 01-1.47 3.8c-.3.74-.65 1.56-.32 2.3a5.54 5.54 0 00-2.91-.41c.38-.78.34-1.69.36-2.55.03-1.17.16-2.34.37-3.5.34-1.75.91-3.46 1.71-5.05.16-.34.27-.7.33-1.07a6.8 6.8 0 00-.14-2.46 14.7 14.7 0 00-2.04-5.01l-.01.1c-.06.5-.15 1.01-.26 1.52-.22 1.06-.48 2.12-.44 3.19a17.2 17.2 0 01-.21 3.38c-.06.44-.17.87-.34 1.28-.1.24-.25.48-.34.73-.08.3-.13.6-.13.9-.13 2.58 0 5.89.52 8.42a4.9 4.9 0 00-2.55.58c-.63-1.8-1.04-4.36-1.34-6.25-.34-2.24-.28-4.52.2-6.73.15-.74.2-1.5.17-2.25-.07-1.5-.44-2.96-.8-4.42l-.56-2.21-.8-3.16a6.73 6.73 0 01-.29-2.14c.04-.4.12-.78.25-1.16.4-1.28.98-2.49 1.75-3.59 3.05.17 6.14-.11 9.18-.35.15-.03.3 0 .43.07.1.11.17.25.18.4l1.14 6.5c.19.9.3 1.82.33 2.74 0 .92-.15 1.84-.11 2.75.04 1.24.28 2.41.28 3.65z" fill="#2F2E41"></path><path d="M19.62 95.75c-.06.5-.15 1.01-.26 1.52-.66-1.15-1.37-2.27-1.99-3.45l-.45-.92-.45-.92-.25-.52a3.8 3.8 0 01-.28-.8c.22-.04.77.56.93.71.34.34.66.69.96 1.06.36.4.69.84.99 1.3.38.62.65 1.3.8 2.02z" fill="#000" opacity=".1"></path><path d="M22.16 64.2s-1.7 2.7-1.38 3.27c.31.56-5.33-.5-5.33-.5s3.07-2.71 2.76-3.84c-.32-1.13 3.95 1.07 3.95 1.07z" fill="#EFB7B9"></path><path d="M20.66 65.01a3.83 3.83 0 10-.01-7.66 3.83 3.83 0 000 7.66z" fill="#EFB7B9"></path><path d="M22.22 67.03a3.9 3.9 0 00-1.61-1.3 5.78 5.78 0 00-1.15-.28l-1.52-.27c-.38-.07-.78-.13-1.13.03-.17.08-.33.2-.47.35-.53.49-1.05 1.03-1.71 1.31l-.56.22c-.74.32-1.3.99-1.62 1.74a5.83 5.83 0 00-.31 2.49c0 .29.03.58.08.87.08.28.18.54.3.8.2.56.38 1.13.52 1.7.4 1.52.73 3.06.99 4.6.02.23.09.44.2.64.14.2.32.37.52.51.16.13.3.28.44.44.07.07.12.15.14.24.05.23-.15.43-.31.6-.34.34-.6.77-.72 1.24a.5.5 0 00-.11.35.6.6 0 01.03.27.63.63 0 01-.14.22.85.85 0 00-.16.68c1.19.52 2.46.82 3.75.88.32.02.63.02.95.05.22.03.44.08.67.1.32.04.65.04.98.03 1.7-.03 3.46-.08 5.02-.75.15-.8-.17-1.63-.37-2.42-.31-1.26-.4-2.57-.63-3.85-.16-.87-.4-1.74-.53-2.62a6.3 6.3 0 01.08-2.64c.21-.76.27-1.54.5-2.3.22-.75.37-1.57.12-2.32a2.37 2.37 0 00-2.24-1.6z" fill="#B099CD"></path><path d="M24.1 59.14c.18-.68-.18-1.39-.62-1.94a3.27 3.27 0 00-1.82-1.28c-.6-.12-1.23.03-1.84-.02-.55-.05-1.07-.24-1.6-.31a5.07 5.07 0 00-1.48.05c-.46.07-.9.2-1.34.38-1.62.72-2.58 2.5-2.8 4.28-.22 1.77.17 3.56.55 5.3l.35 1.58c.36 1.64.73 3.29.83 4.97.1 1.68-.09 3.4-.78 4.93a10.6 10.6 0 004.87-5.52c.24-.65.43-1.32.7-1.96.24-.55.54-1.07.75-1.63.24-.63.35-1.3.33-1.98 0-.5-.1-1-.08-1.51.02-.51.15-1.04.5-1.4.3-.33.75-.5 1.15-.7a4.8 4.8 0 001.61-1.34c.25-.33.27-.47.33-.85.06-.37.29-.69.39-1.05z" fill="#2F2E41"></path><path d="M24.1 87.97c.04.4-.03.8.06 1.18.06.3.21.56.3.84.09.33.13.67.13 1.01.02.29 0 .64-.26.77-.1.06-.24.06-.36.1-.11.06-.21.2-.14.3.05.1.18.1.28.12.1.02.22.13.16.21a.18.18 0 01-.1.06c-.1.03-.2.08-.3.14a.3.3 0 00-.11.3.18.18 0 00.25.11.8.8 0 00-.07.32c.4.17.86-.06 1.24-.28.16-.09.32-.2.47-.3a2.38 2.38 0 00.92-2.03 8.88 8.88 0 00-.32-1.56c-.1-.34-.26-.67-.39-1-.27-.71-.45-1.46-.7-2.18a.25.25 0 00-.29-.22c-.27-.02-.55 0-.82.07-.16.05-.43.16-.5.33-.07.15.04.29.11.42.23.4.38.83.44 1.29z" fill="#EFB7B9"></path><path d="M23.84 68.7c.09.08.15.17.2.28.55.99.56 2.17.58 3.3.03 1.27.1 2.55.17 3.82l.2 3.8c.03.36.05.72.1 1.08.24.07.25.38.23.63-.18 1.56-.61 3.15-.16 4.64.02.08.06.15.1.21a1.23 1.23 0 00-.7 0c-.23.04-.45.12-.67.17-.29.07-.62.1-.81.32a15.8 15.8 0 01-.53-2.05c-.11-.63-.14-1.29-.4-1.87-.1-.24-.24-.46-.37-.69a14.9 14.9 0 01-1.3-3.85 5.63 5.63 0 01-.1-1.91c.04-.3.07-.59.07-.88a7.13 7.13 0 00-.12-.93c-.13-.9-.07-1.8.19-2.68.24-.8.44-1.66.94-2.33.5-.68 1.54-1.06 2.38-1.07z" fill="#000" opacity=".1"></path><path d="M24.03 68.57c.08.08.15.18.2.28.55.99.56 2.18.58 3.3.03 1.28.1 2.55.17 3.82l.2 3.8c.03.37.05.73.1 1.09.24.06.25.38.22.63-.17 1.55-.6 3.15-.15 4.64.02.08.05.15.1.2a1.23 1.23 0 00-.7 0c-.23.04-.45.13-.67.18-.3.06-.62.1-.81.31a15.8 15.8 0 01-.53-2.05c-.11-.63-.14-1.28-.4-1.87-.1-.24-.24-.46-.37-.68a14.88 14.88 0 01-1.3-3.85 5.63 5.63 0 01-.1-1.92c.04-.29.07-.58.07-.88a7.11 7.11 0 00-.12-.92c-.13-.9-.07-1.81.19-2.68.23-.81.44-1.66.94-2.34.5-.68 1.54-1.05 2.38-1.06z" fill="#B099CD"></path><g fill="#000" opacity=".1"><path d="M23.48 57.2a3.27 3.27 0 00-1.82-1.28c-.6-.12-1.23.03-1.84-.02-.55-.05-1.07-.24-1.6-.31a5.07 5.07 0 00-1.48.05c-.46.07-.9.2-1.34.38-.23.1-.45.23-.65.37.38-.14.77-.25 1.18-.3.48-.1.98-.11 1.46-.06.55.07 1.07.26 1.61.3.61.06 1.24-.1 1.84.03.75.15 1.35.69 1.82 1.28.44.55.8 1.26.62 1.94-.1.36-.32.68-.39 1.05-.06.38-.07.52-.33.85-.32.42-.71.79-1.16 1.08.13-.06.25-.11.37-.18a4.79 4.79 0 001.61-1.34c.25-.33.27-.47.33-.85.06-.37.29-.69.39-1.05.18-.68-.18-1.39-.62-1.94zM20.62 63.07c.06-.07.13-.13.2-.18-.36.17-.74.33-1.02.62-.35.37-.48.9-.5 1.4 0 .51.08 1.02.09 1.52.01.68-.1 1.35-.34 1.98-.2.56-.5 1.08-.74 1.63-.28.64-.46 1.31-.7 1.96-.8 2.05-2.2 3.8-4.03 5.02l-.03.06a10.6 10.6 0 004.87-5.52c.24-.65.43-1.32.7-1.96.24-.55.54-1.07.75-1.63.24-.63.35-1.3.33-1.98 0-.5-.1-1-.08-1.51.02-.51.15-1.04.5-1.4z" opacity=".1"></path></g><path d="M104.7 119.46c-.19.22-.5.27-.78.3-.37.05-.74.05-1.1.02-.44-.07-.7.18-1.1-.01-.24-.12-.6.11-.85 0-.33-.16-1.47-.2-1.67-.5-.2-.31-.18-.8.14-.98l.28-.11c.53-.21 1.6-1.81 2.17-1.9.28 0 .56.06.8.2.56.24 1.55.44 1.79 1.07.19.5.7 1.43.31 1.91zM108.7 119.33c.18.22.5.27.78.3.36.05.73.06 1.1.02.43-.07.96.3 1.36.12.24-.12.61-.06.85-.17.33-.16 1.88.2 2.08-.12.2-.3.19-.8-.13-.98a2.14 2.14 0 00-.28-.1c-.53-.22-2.3-2.16-2.86-2.24-.28-.01-.56.05-.8.2-.56.24-1.54.44-1.79 1.06-.19.5-.7 1.43-.31 1.91z" fill="#2F2E41"></path><path d="M110.46 84.48c.18.34.33.68.46 1.04 1.54 4.1 1.67 8.58 1.74 12.96 0 .71.03 1.42.12 2.13.06.45.16.9.1 1.35-.06.39-.24.77-.17 1.16.04.17.12.33.15.5.03.19.02.38-.02.57l-.2 1.55c-.12.88-.4 1.72-.38 2.61.01.6.02 1.22.09 1.82.07.6.2 1.22.2 1.83 0 .46-.06.92-.1 1.38-.06.65-.07 1.3-.04 1.95.03.5.09 1.02.35 1.44-.3.43-.6.81-1.07 1.02-.96.43-2.07.28-3.11.13.05-.2.14-.41.06-.6A2.88 2.88 0 01108 116c-.13-.45-.26-.95 0-1.4a.9.9 0 00.11-.51c-.21-2.9-.86-5.91-.26-8.77.06-.3.14-.6.17-.91.03-.45.04-.9.02-1.34l-.01-.62c-.03-.66 0-1.33-.14-1.99-.1-.47-.27-.94-.05-1.41a.8.8 0 00-.04-.7c-.45-.8-.82-1.65-1.1-2.54a4.48 4.48 0 00-.23-.72 10.4 10.4 0 01-1.59-3.19c.04-.08.01-.19-.07-.18a.33.33 0 00-.2.15c-.42.56-.45 1.3-.47 2-.03.66-.02 1.3.03 1.95.04.34.1.68.13 1.02.04.63.03 1.27-.03 1.9l-.22 3.11c-.02.26 0 .52.05.77.14.44.2.9.2 1.35-.06 1.88.1 3.76.48 5.6.1.5.22 1.01.31 1.52.2 1.2.24 2.44.27 3.66a5.3 5.3 0 01-.27 2.22c-.12.21-.2.44-.25.68 0 .12-.02.24-.05.36-.09.22-.35.32-.58.37-.44.1-.9.13-1.34.1a.78.78 0 01-.3-.07c-.17-.09-.26-.27-.39-.41-.28-.3-.73-.4-.98-.72-.31-.4-.18-.98 0-1.45.19-.48.42-1 .26-1.48-.19-.57-.86-.87-1.04-1.45.51-2.3-.75-4.7-.64-7.06.03-.55.12-1.1.12-1.65 0-1.42-.6-2.8-.5-4.22.25-3.6-.97-7.2-1.49-10.77a7.07 7.07 0 01-.1-1.61c.07-.9.48-1.73.98-2.48.36-.53.79-1.05 1.38-1.3a3.9 3.9 0 011.56-.2c1.32 0 2.63.02 3.95.04a13 13 0 012.68.24c.71.16 1.38.5 2.1.6z" fill="#2F2E41"></path><path d="M89.16 68.07c-.13-.63.12-1.3-.07-1.9-.07-.23-.24-.46-.47-.45-.22 0-.37.22-.57.33-.32.17-.7.01-1.03-.15-.32-.17-.67-.36-1.02-.26-.04.22.1.42.27.58.17.13.32.3.43.5.05.2.07.42.05.64.04.5.35.92.67 1.3.5.63 1.04 1.22 1.6 1.79 0 0 .86-1.07.84-1.25-.01-.18-.3-.34-.4-.48-.15-.2-.25-.42-.3-.65zM114.72 81.18c.08.2.14.4.17.61a42.47 42.47 0 01.59 4.13c.03.7-.1 1.39-.42 2.01-.31.63-.85 1.11-1.5 1.36-.2.07-.48.09-.57-.1a.42.42 0 010-.29c.08-.29.24-.55.34-.83.16-.42.19-.88.08-1.31-.04-.17-.13-.36-.3-.39.09.38.02.79-.2 1.12a.4.4 0 01-.22.2.3.3 0 01-.33-.21.9.9 0 01-.02-.42c.05-.7.16-1.4.31-2.07.2-.75.49-1.5.47-2.27-.02-.7-.3-1.38-.22-2.08 0-.04.02-.08.04-.12a4.35 4.35 0 01.69-.25c.12-.03.53-.18.65-.11.1.05.12.36.17.47.08.18.2.36.27.55zM100.94 60.44a2.86 2.86 0 10-.01-5.71 2.86 2.86 0 000 5.7z" fill="#A1616A"></path><path d="M103.5 59.65c0 .18 0 .36.04.54.03.18.1.36.16.53.1.28.23.55.4.79s.43.41.72.47a20.5 20.5 0 01-6.16 1.79c.33-.23.61-.53.81-.88.11-.22.18-.46.22-.71a6 6 0 00-.27-3.08c-.03-.1-.07-.22 0-.3a6.35 6.35 0 012.78-.57c.24 0 .47.02.7.03.13.01.41-.01.51.08.12.1.06.45.06.6l.02.7z" fill="#A1616A"></path><path d="M105 61.73a3.05 3.05 0 00-3.65-.91c-1.36.65-2.03 2.2-3.22 3.12a5.63 5.63 0 01-1.43.76c-.23.05-.46.05-.68.1-.43.12-.79.4-1.01.78-.11.2-.24.4-.37.58-.13.15-.28.27-.41.4-.48.52-.6 1.25-.72 1.94-.37.4-.77.75-1.2 1.07-.15.11-.3.2-.46.25-.42.14-.88-.03-1.23-.3-.36-.25-.65-.59-1-.85-.32.46-.66.92-1 1.37a.44.44 0 01-.23.18c-.06.22.1.45.2.64l.63 1.05c.2.38.46.73.75 1.05.3.32.7.52 1.14.56.27 0 .55-.06.8-.16 1.19-.4 2.28-1.03 3.4-1.57.2-.12.44-.19.67-.2a.54.54 0 01.53.38c.13.65.26 1.3.43 1.95.17.6.33 1.21.47 1.83a7.98 7.98 0 01.23 1.8l.02 2.64c0 .29-.16.47-.28.72-.2.4-.22.86-.08 1.28.07.2.18.4.26.6.18.5.18 1.04.17 1.56l-.03 1.21c0 .05 0 .1.03.15.07.11.25.05.36-.03l.57-.4c.75.11 1.52.15 2.28.12a76.9 76.9 0 016.49.2c.72.05 1.47.1 2.15-.13.34-.12.66-.32 1.02-.42a.93.93 0 00.4-.16c.2-.19.14-.51.06-.77a7.94 7.94 0 00-.24-.66c-.09-.2-.16-.41-.22-.63-.11-.48 0-1.04-.3-1.43-.67-.88-.2-2.23-.48-3.3-.1-.35-.23-.68-.31-1.03a7.1 7.1 0 01-.12-.66 7.83 7.83 0 01-.14-1.46c.01-.24.04-.49.07-.73l.22-1.69c.26.5.45 1.04.55 1.6.19.83.43 1.65.71 2.46.16.48.32.97.5 1.45.1.28.2.56.25.85.04.23.04.47.06.7.06.51.24 1 .52 1.42.05.1.14.17.24.21h.21c.75-.16 1.48-.4 2.17-.76a.87.87 0 00.36-.28c.19-.3-.02-.68-.1-1.02-.1-.36-.08-.8-.37-1.05-1-.85-.5-2.58-1-3.8-.1-.2-.2-.42-.27-.63-.06-.17-.1-.34-.14-.51-.35-1.42-.72-2.83-1.12-4.23-.41-1.45-.37-2.97-.89-4.39-.1-.3-.22-.58-.38-.85a2.32 2.32 0 00-.69-.72 6.83 6.83 0 00-2.4-1.1c-.89-.18-1.84-.16-2.75-.15z" fill="#D0CDE1"></path><path d="M98.34 58.28c-.38-.2-.28-.77-.34-1.2-.14-.89-1.14-1.42-1.37-2.28.27.03.54 0 .8-.11.04-.3-.02-.59-.17-.84.82-.33 1.49-.99 2.33-1.3 1.05-.37 2.22-.14 3.28.21.53.18 1.08.41 1.4.87.35.5.35 1.16.33 1.78a6.77 6.77 0 01-.5 2.82c-.54 1.1-2.08 2.11-3.36 1.81-.53-.12-.68-.45-.9-.91-.14-.3-.2-.62-.5-.77-.32-.15-.69.09-1-.08z" fill="#2F2E41"></path><g fill="#000" opacity=".1"><path d="M109.91 78.78zM97.56 81.65c.18.49.18 1.03.17 1.56l-.01.41a2.82 2.82 0 00-.16-.83c-.08-.2-.2-.4-.26-.6a1.7 1.7 0 01.01-1.11c.07.2.17.37.25.57z" opacity=".1"></path></g><path d="M97.42 54.27a1.2 1.2 0 00-.16-.42l.14-.06c.04.16.05.32.02.48z" fill="#000" opacity=".1"></path><path d="M7.53 48.44l-.67-.6c-2.39-2.2-3.96-3.63-3.96-5.4a2.53 2.53 0 012.55-2.57 2.74 2.74 0 012.08.98 2.74 2.74 0 013.07-.8 2.52 2.52 0 011.57 2.39c0 1.77-1.58 3.2-3.97 5.4l-.67.6z" fill="#ED6664"></path><path d="M8.72 46.9l-.67-.6c-2.39-2.2-3.96-3.62-3.96-5.4a2.53 2.53 0 012.55-2.57 2.74 2.74 0 012.08.98 2.74 2.74 0 013.07-.8 2.52 2.52 0 011.57 2.39c0 1.78-1.58 3.2-3.96 5.4l-.68.6z" stroke="#3F3D56" stroke-miterlimit="10" stroke-width="2"></path></svg>