<svg width="16" height="16" fill="none" xmlns="http://www.w3.org/2000/svg"><path fill-rule="evenodd" clip-rule="evenodd" d="M4.77 0h6.46A4.77 4.77 0 0116 4.77v6.46A4.77 4.77 0 0111.23 16H4.77A4.77 4.77 0 010 11.23V4.77A4.77 4.77 0 014.77 0zm6.41 14.29a3.1 3.1 0 003.1-3.1V4.81a3.1 3.1 0 00-3.1-3.1H4.82a3.1 3.1 0 00-3.1 3.1v6.36a3.1 3.1 0 003.1 3.1h6.36z" fill="#424242"/><path fill-rule="evenodd" clip-rule="evenodd" d="M4 8a4 4 0 118 0 4 4 0 01-8 0zm1.71 0a2.29 2.29 0 104.58 0A2.29 2.29 0 005.7 8z" fill="#424242"/><path d="M12.29 5.14c.47 0 .85-.5.85-1.14 0-.63-.38-1.14-.85-1.14-.48 0-.86.5-.86 1.14 0 .63.38 1.14.86 1.14z" fill="#424242"/></svg>