<svg fill="none" viewBox="0 0 128 20" xmlns="http://www.w3.org/2000/svg" class="navigation-logo_root_x_jvb platform-navigation_logoComponent_2eSnR"><path d="M23.94.36a7.06 7.06 0 00-6.54 4.42 7.2 7.2 0 001.54 7.8A7.08 7.08 0 0031.05 7.5 7.2 7.2 0 0026.66.9a7.05 7.05 0 00-2.72-.54zm0 11.92a4.7 4.7 0 01-4.36-2.95 4.81 4.81 0 013.46-6.5 4.7 4.7 0 014.85 2.03 4.8 4.8 0 01-2.13 7.06 4.7 4.7 0 01-1.82.36zM13.3 5.13c-.32 0-.62.12-.84.34L7.39 10.6 2.33 5.47A1.19 1.19 0 00.3 6.3v11.9a1.2 1.2 0 001.18 1.17 1.18 1.18 0 001.18-1.17V9.16l3.89 3.94a1.19 1.19 0 001.67 0l3.88-3.94v9.04a1.2 1.2 0 001.18 1.17 1.18 1.18 0 001.18-1.17V6.3a1.18 1.18 0 00-1.18-1.17zM29.86 17.06H18.02a1.16 1.16 0 00-1.1.72 1.18 1.18 0 001.1 1.63h11.84a1.16 1.16 0 001.1-.72 1.18 1.18 0 00-.64-1.55c-.15-.06-.3-.08-.46-.08zM45.94 19.14V4.68h3.54l2.3 6.43c.15.43.3.87.43 1.32l.41 1.35h.09c.15-.45.28-.9.4-1.35l.41-1.32 2.27-6.43h3.52v14.46h-2.95v-5.3a39.39 39.39 0 01.28-3.76c.05-.42.1-.8.13-1.16h-.08l-1.17 3.44-2.05 5.52H51.7l-2.05-5.52-1.14-3.44h-.1a63.39 63.39 0 01.27 2.45 45.93 45.93 0 01.15 2.47v5.3h-2.9zM68.53 19.41a6.6 6.6 0 01-2.65-.52 5.76 5.76 0 01-2.06-1.5 6.9 6.9 0 01-1.33-2.37 9.85 9.85 0 01-.48-3.17c0-1.18.16-2.24.48-3.16.31-.93.76-1.7 1.33-2.33a5.71 5.71 0 012.06-1.44c.8-.34 1.68-.5 2.65-.5.96 0 1.85.17 2.65.5.78.32 1.49.82 2.06 1.45a6.65 6.65 0 011.33 2.34c.31.93.47 1.97.47 3.14 0 1.18-.16 2.24-.47 3.17a6.9 6.9 0 01-1.33 2.38 5.76 5.76 0 01-2.06 1.5c-.8.34-1.69.51-2.65.51zm0-2.82c.98 0 1.76-.42 2.33-1.27.57-.85.86-2 .86-3.47 0-1.45-.29-2.58-.86-3.4a2.7 2.7 0 00-2.33-1.22c-.99 0-1.76.41-2.34 1.22a5.82 5.82 0 00-.85 3.4c0 1.46.28 2.62.85 3.47a2.67 2.67 0 002.34 1.27zM77.75 19.14V4.68h4.04c1.1 0 2.1.14 2.97.42a5.7 5.7 0 013.72 3.53c.34.9.51 1.97.51 3.22 0 1.24-.17 2.32-.5 3.24a6 6 0 01-1.44 2.27 5.86 5.86 0 01-2.21 1.34c-.86.3-1.82.44-2.87.44h-4.22zm3.23-2.64h.62c.56.01 1.13-.07 1.67-.24.48-.15.92-.42 1.27-.79.36-.36.63-.84.83-1.43a7 7 0 00.3-2.2c0-.85-.1-1.57-.3-2.16a3.5 3.5 0 00-.83-1.4c-.35-.34-.8-.6-1.27-.74a5.88 5.88 0 00-1.67-.22h-.62v9.18zM89.67 19.14l4.49-14.46h3.9l4.48 14.46h-3.43l-.88-3.43h-4.38l-.88 3.43h-3.3zm5.2-7.31l-.36 1.33h3.06l-.33-1.33c-.2-.73-.4-1.5-.6-2.31l-.57-2.35h-.09l-.53 2.36c-.19.8-.38 1.57-.59 2.3zM108.48 19.41c-.96 0-1.9-.18-2.8-.52a7.31 7.31 0 01-2.5-1.56l1.85-2.24c.51.44 1.08.8 1.7 1.09.58.27 1.2.41 1.84.42.67 0 1.18-.13 1.5-.38a1.22 1.22 0 00.5-1.02c0-.2-.04-.4-.14-.58-.1-.17-.25-.32-.42-.43-.2-.14-.43-.26-.66-.35l-.85-.37-1.87-.8a5.55 5.55 0 01-1.98-1.41 3.75 3.75 0 01-.9-2.54c0-.58.13-1.15.38-1.67.25-.53.61-1 1.05-1.38.48-.4 1.03-.72 1.62-.92a6.63 6.63 0 016.68 1.57l-1.65 2.07c-.43-.35-.9-.64-1.4-.86-.5-.2-1.04-.3-1.57-.3-.56 0-1 .12-1.33.35a1.1 1.1 0 00-.5.96c0 .2.05.4.17.57.12.17.28.31.46.42.22.14.45.26.7.35l.85.37 1.85.75c.88.36 1.57.85 2.08 1.47.5.62.76 1.44.76 2.46a4.14 4.14 0 01-1.42 3.14c-.5.43-1.08.76-1.7.97-.69.25-1.45.37-2.3.37zM116.33 19.14V4.68h3.24v5.57h4.95V4.68h3.26v14.46h-3.26v-6.03h-4.95v6.03h-3.23z" fill="#fff"></path></svg>