<svg xmlns="http://www.w3.org/2000/svg" width="68" height="75.156" viewBox="0 0 68 75.156">
  <g id="グループ_34" data-name="グループ 34" transform="translate(-74.765 -66.328)">
    <path id="パス_83" data-name="パス 83" d="M143.83,87.285l.586,1.513,6.592-17.022-.921-2.377v0a.5.5,0,0,0-.025-.047l-6.705,17.313A1.256,1.256,0,0,1,143.83,87.285Z" transform="translate(-33.765 -1.489)" fill="#2b2b2b"/>
    <path id="パス_84" data-name="パス 84" d="M151.01,105.535l.94,2.429,6.6-17.03-.941-2.428Z" transform="translate(-37.533 -10.918)" fill="#2b2b2b"/>
    <path id="パス_85" data-name="パス 85" d="M195.43,184.349l-5.893,15.215a2.1,2.1,0,0,0,.233.019h1.646l4.958-12.8Z" transform="translate(-56.499 -58.099)" fill="#2b2b2b"/>
    <path id="パス_86" data-name="パス 86" d="M116.542,66.328h-1.886L85.548,141.484h1.886Z" transform="translate(-5.308)" fill="#2b2b2b"/>
    <path id="パス_87" data-name="パス 87" d="M206.57,204.419a3.55,3.55,0,0,0-.089-.758l-2.1,5.429h1.343a.83.83,0,0,0,.7-.416l.11-.285a.856.856,0,0,0,.035-.174Z" transform="translate(-63.805 -67.605)" fill="#2b2b2b"/>
    <path id="パス_88" data-name="パス 88" d="M158.43,124.706l.943,2.434,6.6-17.039-.943-2.433Z" transform="translate(-41.186 -20.351)" fill="#2b2b2b"/>
    <path id="パス_89" data-name="パス 89" d="M160.379,143.886l6.6-17.048.943,2.435-11.307,29.193h-1.886l4.742-12.243C159.438,146.185,160.379,143.886,160.379,143.886Z" transform="translate(-39.365 -29.787)" fill="#2b2b2b"/>
    <path id="パス_90" data-name="パス 90" d="M188.255,167.615l-.942-2.428-6.605,17.053.943,2.427Z" transform="translate(-52.153 -48.666)" fill="#2b2b2b"/>
    <path id="パス_91" data-name="パス 91" d="M179.009,148.447l-.943-2.435L169.587,167.9h1.886Z" transform="translate(-46.678 -39.226)" fill="#2b2b2b"/>
    <path id="パス_92" data-name="パス 92" d="M103.691,66.328h-.338a3.541,3.541,0,0,0-.492.094,2.461,2.461,0,0,0-1.657,1.489l-26.2,67.6a3.583,3.583,0,0,0-.243,1.3v3.8a.891.891,0,0,0,.052.267Z" fill="#2b2b2b"/>
    <path id="パス_93" data-name="パス 93" d="M131.647,165.041h-1.882l-4.737,12.231h1.882Z" transform="translate(-24.743 -48.594)" fill="#2b2b2b"/>
    <path id="パス_94" data-name="パス 94" d="M116.795,165.037h-1.844c-.014,0-.026,0-.04,0l-4.739,12.235h1.886Z" transform="translate(-17.43 -48.59)" fill="#2b2b2b"/>
    <path id="パス_95" data-name="パス 95" d="M146.5,165.041h-1.886l-4.737,12.231h1.886Z" transform="translate(-32.052 -48.594)" fill="#2b2b2b"/>
  </g>
</svg>
