<svg xmlns="http://www.w3.org/2000/svg" xmlns:xlink="http://www.w3.org/1999/xlink" width="445.683" height="576.975" viewBox="0 0 445.683 576.975">
  <defs>
    <linearGradient id="linear-gradient" x1="0.5" x2="0.5" y2="1" gradientUnits="objectBoundingBox">
      <stop offset="0" stop-color="#ff4e2e"/>
      <stop offset="1" stop-color="#e88576"/>
    </linearGradient>
    <linearGradient id="linear-gradient-2" x1="0.201" x2="0.829" y2="0.852" gradientUnits="objectBoundingBox">
      <stop offset="0" stop-color="#f7ecea"/>
      <stop offset="1" stop-color="#e9c3bc"/>
    </linearGradient>
    <linearGradient id="linear-gradient-3" x1="0.5" x2="0.5" y2="1" gradientUnits="objectBoundingBox">
      <stop offset="0" stop-color="#f78570"/>
      <stop offset="1" stop-color="#ff4e2e"/>
    </linearGradient>
    <linearGradient id="linear-gradient-4" x1="0.5" x2="0.5" y2="1" gradientUnits="objectBoundingBox">
      <stop offset="0" stop-color="#b9e4f8"/>
      <stop offset="1" stop-color="#1477eb"/>
    </linearGradient>
    <linearGradient id="linear-gradient-5" x1="0.5" x2="0.376" y2="0.704" gradientUnits="objectBoundingBox">
      <stop offset="0" stop-color="#674a95"/>
      <stop offset="1" stop-color="#5b32b4"/>
    </linearGradient>
    <linearGradient id="linear-gradient-6" x1="0.765" x2="0.212" y2="1" gradientUnits="objectBoundingBox">
      <stop offset="0" stop-color="#f7ecea"/>
      <stop offset="1" stop-color="#e8bfb7"/>
    </linearGradient>
    <linearGradient id="linear-gradient-7" x1="0.5" x2="0.5" y2="1" gradientUnits="objectBoundingBox">
      <stop offset="0" stop-color="#a9a3f7"/>
      <stop offset="1" stop-color="#8d6bf7"/>
    </linearGradient>
    <linearGradient id="linear-gradient-8" x1="0.5" x2="0.5" y2="1" gradientUnits="objectBoundingBox">
      <stop offset="0" stop-color="#5f39bb"/>
      <stop offset="1" stop-color="#6a352d"/>
    </linearGradient>
  </defs>
  <g id="グループ_707" data-name="グループ 707" transform="translate(-7913.457 -133.099)">
    <g id="グループ_701" data-name="グループ 701" transform="translate(7913.457 138.209)">
      <path id="パス_54" data-name="パス 54" d="M324.587,391.658s-12.272-9.763,2.789-29.1,33.193-23.8,49.371-9.669,15.339,15.806,16.829,29.195,10.226-2.6,22.222-1.208,2.7,11.716,16.178,13.575-10.786,17.852.651,22.222.929,33.844-27.894,15.9S324.587,391.658,324.587,391.658Z" transform="translate(-247.294 -344.614)" fill="url(#linear-gradient)"/>
      <path id="パス_55" data-name="パス 55" d="M323.87,384.353s3.254-5.951,14.6-5.672,13.761-4.37,18.038-9.019,11.251,1.767,9.3,11.808,15.623,3.162,21.571,9.112,13.017,19.247,13.017,19.247-20.736,11.994-28.451,22.035c0,0-.65-11.158-5.4-6.6s-11.436,7.346-17.573-3.347-7.717-.189-12.088-4.37-.466-12.46-3.9-15.991S324.334,396.9,323.87,384.353Z" transform="translate(-247.506 -345.863)" fill="url(#linear-gradient-2)"/>
      <path id="パス_56" data-name="パス 56" d="M321.538,571.861s-7.811,33.286-3.533,60.622-33.658,77.169-35.7,116.223,25.475,121.987,12.459,139.839-42.4,18.6-50.952,30.867,78.939,3.812,90.189-2.417c0,0-.095-2.882-.558-7.531,0,0,22.965-1.022,38.307-1.022s26.313,5.578,25.011-11.436-5.113-16.737-4.184-31.612l10.041-.095s11.927-57.627,10.066-90.541-8.74-88.143.558-121.244-18.806-60.083-28.1-91.7Z" transform="translate(-243.22 -356.156)" fill="url(#linear-gradient-3)"/>
      <path id="パス_57" data-name="パス 57" d="M434.732,485.927c3.132,15.423,8.581,37.727,1.326,51.861s-2.6,34.029-23.059,46.86-72.452-30.763-85.283-17.933-3.162-30.5-3.162-30.5,6.137-32.542,20.083-53.741,15.806-34.216,31.057-55.973,39.051-5.579,43.886,10.226,13.574,42.212,13.574,42.212" transform="translate(-247.357 -348.406)" fill="url(#linear-gradient-4)"/>
      <rect id="長方形_7" data-name="長方形 7" width="4.276" height="43.88" transform="translate(29.65 115.718) rotate(-40.172)" fill="#c9daed"/>
      <path id="パス_64" data-name="パス 64" d="M368.887,515.7s-39.649-6.032-48.953-16.683c-7.351-8.415-11.94-14.5-18.275-16.1-1.682-.425-4.114,2.357-6.007,2.049-9.015-1.466-11.5,3.433-9.215,6.078s-1.473.568.716,8.459,5.192,2.512,5.776,8.063,11.173,7.82,24.07,11.315,72.853,37.079,80.332,25.755S368.887,515.7,368.887,515.7Z" transform="translate(-245.475 -351.961)" fill="#eac6bf"/>
    </g>
    <path id="パス_58" data-name="パス 58" d="M543.83,487.3s4.587,4.216,12.273,2.6,21.943-.248,22.067,15,11.9,17.108,1.24,26.778-15.682,13.094-24.609,9.374-41.7-.651-41.7-.651-11.421-10.088-4.356-24.1,2.852-21.2,14.5-26.53S543.83,487.3,543.83,487.3Z" transform="translate(7693.711 -353.443)" fill="url(#linear-gradient-5)"/>
    <path id="パス_59" data-name="パス 59" d="M565.338,541.559s-16.984-12.273-17.6-23.554-11.529-6.817-12.769,3.219-9.546,15.124-15.623,7.687-12.149-2.975-9.174,7.19-9.792,29.009-16.611,32.728c0,0,23.926,30.993,39.547,25.166,0,0-6.943-19.588.991-19.216s12.521,4.463,17.478-7.315,5.331-4.835,9.547-12.892S565.338,541.559,565.338,541.559Z" transform="translate(7694.396 -354.762)" fill="url(#linear-gradient-6)"/>
    <path id="パス_61" data-name="パス 61" d="M542.144,596.788S504.395,563.5,481.708,574.1s-30.5,2.6-48.534,26.219-63.225,60.435-31.426,88.329,53.183,36.265,50.207,64.527,31.613,3.719,78.474,20.642c0,0,9.669,7.624,11.157-2.79s1.3-49.65,13.575-28.451,17.294,22.129,17.294,22.129l17.107-8.926S622.1,688.832,542.144,596.788Z" transform="translate(7699.861 -357.985)" fill="url(#linear-gradient-7)"/>
    <path id="パス_62" data-name="パス 62" d="M581.385,760.372s-3.347,12.273,8.306,25.29,6.942,17.233,10.538,15.868c0,0,.124,3.6-3.471,8.807s7.934,8.058,15.992-6.694-10.537-22.314-15.744-40.662S581.385,760.372,581.385,760.372Z" transform="translate(7689.753 -367.66)" fill="#f8dec2"/>
    <path id="パス_65" data-name="パス 65" d="M562.564,655.832l14.048.6a5.076,5.076,0,0,1,3.909,6.021l-9.362,44.014a5.076,5.076,0,0,1-6.021,3.909l-14.048-.6a5.076,5.076,0,0,1-3.909-6.022l9.361-44.014a5.076,5.076,0,0,1,6.02-3.911Z" transform="translate(7691.553 -362.433)" fill="#1477eb"/>
    <path id="パス_63" data-name="パス 63" d="M517.081,705.557s17.852,3.471,21.446-4.462,9.545-9.546,9.545-9.546-1.736,12.024,12.025,7.19,16.364-10.415,17.108-6.2-3.1,5.95-2.851,10.786-.619,7.19-10.538,12.768-4.091,8.182-22.81,6.694-28.018-6.322-28.018-6.322S506.793,710.02,517.081,705.557Z" transform="translate(7693.462 -364.311)" fill="#f8dec2"/>
    <path id="パス_60" data-name="パス 60" d="M458.907,762.637s-12.384,30.962,0,45.745,15.729,32.356,9.035,61.925-44.629,131.657-54.95,150.345-13.668,23.989-13.946,37.377c0,0,60.554,20.4,85.807,12.488,0,0,12.856-3.784,3.493-9.415-7.383-6.081-24.9-15.416-35.745-20.46-15.992-7.438-5.579-15.992,9.3-49.836s44.628-92.6,44.628-92.6L563.057,1034.7a133.183,133.183,0,0,0,21.57,41.283s37.563,6.694,66.944-14.876-29.381-8.182-39.051-23.8-39.051-68.8-59.134-181.121S522.858,712.614,458.907,762.637Z" transform="translate(7699.418 -366.887)" fill="url(#linear-gradient-8)"/>
  </g>
</svg>
